<?xml version="1.0" standalone="yes"?>

<svg version="1.1" viewBox="0.0 0.0 636.8608923884515 422.5485564304462" fill="none" stroke="none" stroke-linecap="square" stroke-miterlimit="10" xmlns="http://www.w3.org/2000/svg" xmlns:xlink="http://www.w3.org/1999/xlink"><clipPath id="p.0"><path d="m0 0l636.8609 0l0 422.54855l-636.8609 0l0 -422.54855z" clip-rule="nonzero"></path></clipPath><g clip-path="url(#p.0)"><path fill="#000000" fill-opacity="0.0" d="m0 0l636.8609 0l0 422.54855l-636.8609 0z" fill-rule="evenodd"></path><path fill="#6aa84f" d="m0 163.09232l0 0c0 -12.483917 10.120213 -22.604126 22.604126 -22.604126l176.71301 0c5.99498 0 11.744431 2.3815002 15.9835205 6.62059c4.239105 4.239105 6.6206055 9.988556 6.6206055 15.983536l0 90.41379c0 12.483917 -10.120224 22.604126 -22.604126 22.604126l-176.71301 0c-12.483913 0 -22.604126 -10.120209 -22.604126 -22.604126z" fill-rule="evenodd"></path><path stroke="#000000" stroke-width="1.0" stroke-linejoin="round" stroke-linecap="butt" d="m0 163.09232l0 0c0 -12.483917 10.120213 -22.604126 22.604126 -22.604126l176.71301 0c5.99498 0 11.744431 2.3815002 15.9835205 6.62059c4.239105 4.239105 6.6206055 9.988556 6.6206055 15.983536l0 90.41379c0 12.483917 -10.120224 22.604126 -22.604126 22.604126l-176.71301 0c-12.483913 0 -22.604126 -10.120209 -22.604126 -22.604126z" fill-rule="evenodd"></path><path fill="#ffffff" d="m23.964273 174.18796q-0.4375 -0.15625 -0.953125 -0.25q-0.5 -0.109375 -0.984375 -0.109375q-1.859375 0 -2.78125 0.875q-0.90625 0.859375 -0.90625 2.765625q0 0.84375 0.265625 1.5q0.265625 0.640625 0.75 1.109375q0.5 0.453125 1.1875 0.703125q0.703125 0.234375 1.53125 0.234375q0.90625 0 1.75 -0.296875q0.84375 -0.3125 1.40625 -0.796875l0.671875 1.09375q-0.265625 0.234375 -0.671875 0.484375q-0.390625 0.25 -0.921875 0.46875q-0.515625 0.21875 -1.15625 0.34375q-0.640625 0.140625 -1.375 0.140625q-1.234375 0 -2.171875 -0.34375q-0.9375 -0.359375 -1.578125 -1.015625q-0.625 -0.65625 -0.953125 -1.578125q-0.3125 -0.921875 -0.3125 -2.046875q0 -1.203125 0.328125 -2.125q0.34375 -0.9375 0.96875 -1.5625q0.625 -0.625 1.515625 -0.953125q0.890625 -0.34375 2.0 -0.34375q1.40625 0 2.28125 0.25q0.890625 0.25 1.5 0.546875l-0.03125 0.0625l0 2.640625l-1.359375 0l0 -1.796875zm4.100006 8.03125l0 -1.265625l2.5625 0l0 -6.96875l-2.5625 0l0 -1.265625l3.5625 0l0.296875 1.234375l0.09374809 0q0.65625 -0.59375 1.453125 -1.0q0.796875 -0.421875 1.890625 -0.421875q0.65625 0 1.03125 0.25q0.390625 0.234375 0.609375 0.71875q0.21875 0.46875 0.296875 1.15625q0.078125 0.671875 0.078125 1.515625l-1.328125 0.03125q0 -1.21875 -0.234375 -1.78125q-0.234375 -0.578125 -0.875 -0.578125q-0.578125 0 -1.0625 0.171875q-0.46875 0.171875 -0.828125 0.421875q-0.34375 0.234375 -0.59375 0.484375q-0.25 0.25 -0.359375 0.421875l0 5.609375l3.65625 0l0 1.265625l-7.687498 0zm19.99063 -1.203125q-0.34375 0.3125 -0.8125 0.578125q-0.453125 0.265625 -1.015625 0.453125q-0.546875 0.1875 -1.140625 0.296875q-0.59375 0.109375 -1.203125 0.109375q-1.140625 0 -2.015625 -0.34375q-0.875 -0.359375 -1.46875 -1.015625q-0.578125 -0.65625 -0.890625 -1.5625q-0.296875 -0.921875 -0.296875 -2.0625q0 -1.203125 0.328125 -2.125q0.328125 -0.9375 0.953125 -1.5625q0.625 -0.625 1.515625 -0.953125q0.90625 -0.34375 2.0 -0.34375q0.796875 0 1.578125 0.21875q0.78125 0.203125 1.375 0.78125q0.609375 0.578125 0.921875 1.59375q0.328125 1.015625 0.234375 2.640625l-7.359375 0q0 1.703125 0.921875 2.546875q0.921875 0.84375 2.46875 0.84375q0.515625 0 1.015625 -0.109375q0.5 -0.125 0.953125 -0.296875q0.453125 -0.171875 0.796875 -0.375q0.359375 -0.21875 0.5625 -0.390625l0.578125 1.078125zm-4.0 -7.265625q-0.625 0 -1.1875 0.140625q-0.5625 0.125 -1.0 0.4375q-0.421875 0.3125 -0.703125 0.8125q-0.265625 0.5 -0.34375 1.25l5.90625 0q-0.09375 -1.265625 -0.8125 -1.953125q-0.703125 -0.6875 -1.859375 -0.6875zm7.193756 -0.296875q0.828125 -0.46875 1.84375 -0.671875q1.03125 -0.21875 2.015625 -0.21875q0.96875 0 1.578125 0.3125q0.625 0.296875 0.96875 0.78125q0.359375 0.484375 0.484375 1.109375q0.125 0.609375 0.125 1.234375q0 0.734375 -0.046875 1.546875q-0.03125 0.8125 -0.046875 1.625q0 0.953125 0.109375 1.8125l1.28125 0l0 1.234375l-2.53125 0l-0.171875 -1.421875l-0.09375 0q-0.109375 0.171875 -0.34375 0.4375q-0.234375 0.265625 -0.609375 0.53125q-0.359375 0.25 -0.890625 0.4375q-0.53125 0.1875 -1.25 0.1875q-1.40625 0 -2.234375 -0.71875q-0.8125 -0.71875 -0.8125 -1.984375q0 -0.96875 0.421875 -1.609375q0.4375 -0.640625 1.234375 -0.984375q0.796875 -0.34375 1.921875 -0.40625q1.140625 -0.0625 2.546875 0.15625q0.09375 -0.875 0.015625 -1.453125q-0.0625 -0.578125 -0.296875 -0.921875q-0.234375 -0.34375 -0.671875 -0.484375q-0.421875 -0.140625 -1.046875 -0.140625q-0.859375 0 -1.640625 0.234375q-0.765625 0.234375 -1.375 0.484375l-0.484375 -1.109375zm2.796875 7.65625q0.53125 0 0.984375 -0.15625q0.453125 -0.171875 0.796875 -0.4375q0.34375 -0.265625 0.5625 -0.578125q0.234375 -0.328125 0.359375 -0.609375l0 -1.328125q-0.984375 -0.171875 -1.828125 -0.171875q-0.828125 0 -1.4375 0.1875q-0.609375 0.171875 -0.953125 0.5625q-0.34375 0.375 -0.34375 0.984375q0 0.625 0.421875 1.09375q0.4375 0.453125 1.4375 0.453125zm6.943756 -8.390625l2.25 0l0 -1.875l1.484375 -0.421875l0 2.296875l5.078125 0l0 1.265625l-5.078125 0l0 4.484375q0 1.390625 0.671875 2.0625q0.6875 0.65625 1.9375 0.65625q0.859375 0 1.484375 -0.3125q0.640625 -0.328125 1.15625 -0.703125l0.484375 1.109375q-0.65625 0.53125 -1.578125 0.859375q-0.921875 0.328125 -1.890625 0.328125q-0.765625 0 -1.4375 -0.21875q-0.671875 -0.21875 -1.1875 -0.671875q-0.515625 -0.46875 -0.828125 -1.171875q-0.296875 -0.71875 -0.296875 -1.703125l0 -4.71875l-2.25 0l0 -1.265625zm20.646881 8.296875q-0.34375 0.3125 -0.8125 0.578125q-0.453125 0.265625 -1.015625 0.453125q-0.546875 0.1875 -1.140625 0.296875q-0.59375 0.109375 -1.203125 0.109375q-1.140625 0 -2.015625 -0.34375q-0.875 -0.359375 -1.46875 -1.015625q-0.578125 -0.65625 -0.890625 -1.5625q-0.296875 -0.921875 -0.296875 -2.0625q0 -1.203125 0.328125 -2.125q0.328125 -0.9375 0.953125 -1.5625q0.625 -0.625 1.515625 -0.953125q0.90625 -0.34375 2.0 -0.34375q0.796875 0 1.578125 0.21875q0.78125 0.203125 1.375 0.78125q0.609375 0.578125 0.921875 1.59375q0.328125 1.015625 0.234375 2.640625l-7.359375 0q0 1.703125 0.921875 2.546875q0.921875 0.84375 2.46875 0.84375q0.515625 0 1.015625 -0.109375q0.5 -0.125 0.953125 -0.296875q0.453125 -0.171875 0.796875 -0.375q0.359375 -0.21875 0.5625 -0.390625l0.578125 1.078125zm-4.0 -7.265625q-0.625 0 -1.1875 0.140625q-0.5625 0.125 -1.0 0.4375q-0.421875 0.3125 -0.703125 0.8125q-0.265625 0.5 -0.34375 1.25l5.90625 0q-0.09375 -1.265625 -0.8125 -1.953125q-0.703125 -0.6875 -1.859375 -0.6875zm16.934387 -1.03125l2.25 0l0 -1.875l1.484375 -0.421875l0 2.296875l5.078125 0l0 1.265625l-5.078125 0l0 4.484375q0 1.390625 0.671875 2.0625q0.6875 0.65625 1.9375 0.65625q0.859375 0 1.484375 -0.3125q0.640625 -0.328125 1.15625 -0.703125l0.484375 1.109375q-0.65625 0.53125 -1.578125 0.859375q-0.921875 0.328125 -1.890625 0.328125q-0.765625 0 -1.4375 -0.21875q-0.671875 -0.21875 -1.1875 -0.671875q-0.515625 -0.46875 -0.828125 -1.171875q-0.296875 -0.71875 -0.296875 -1.703125l0 -4.71875l-2.25 0l0 -1.265625zm20.646881 8.296875q-0.34375 0.3125 -0.8125 0.578125q-0.453125 0.265625 -1.015625 0.453125q-0.546875 0.1875 -1.140625 0.296875q-0.59375 0.109375 -1.203125 0.109375q-1.140625 0 -2.015625 -0.34375q-0.875 -0.359375 -1.46875 -1.015625q-0.578125 -0.65625 -0.890625 -1.5625q-0.296875 -0.921875 -0.296875 -2.0625q0 -1.203125 0.328125 -2.125q0.328125 -0.9375 0.953125 -1.5625q0.625 -0.625 1.515625 -0.953125q0.90625 -0.34375 2.0 -0.34375q0.796875 0 1.578125 0.21875q0.78125 0.203125 1.375 0.78125q0.609375 0.578125 0.921875 1.59375q0.328125 1.015625 0.234375 2.640625l-7.359375 0q0 1.703125 0.921875 2.546875q0.921875 0.84375 2.46875 0.84375q0.515625 0 1.015625 -0.109375q0.5 -0.125 0.953125 -0.296875q0.453125 -0.171875 0.796875 -0.375q0.359375 -0.21875 0.5625 -0.390625l0.578125 1.078125zm-4.0 -7.265625q-0.625 0 -1.1875 0.140625q-0.5625 0.125 -1.0 0.4375q-0.421875 0.3125 -0.703125 0.8125q-0.265625 0.5 -0.34375 1.25l5.90625 0q-0.09375 -1.265625 -0.8125 -1.953125q-0.703125 -0.6875 -1.859375 -0.6875zm13.475006 5.90625q0 -0.609375 -0.484375 -0.9375q-0.46875 -0.34375 -1.171875 -0.53125q-0.703125 -0.203125 -1.53125 -0.375q-0.828125 -0.171875 -1.53125 -0.453125q-0.703125 -0.296875 -1.1875 -0.78125q-0.46875 -0.484375 -0.46875 -1.34375q0 -0.734375 0.3125 -1.234375q0.3125 -0.515625 0.828125 -0.84375q0.515625 -0.34375 1.203125 -0.5q0.6875 -0.171875 1.421875 -0.171875q1.328125 0 2.28125 0.34375q0.96875 0.328125 1.53125 0.6875l-0.59375 1.203125q-0.640625 -0.34375 -1.375 -0.65625q-0.71875 -0.3125 -1.828125 -0.3125q-0.421875 0 -0.828125 0.09375q-0.40625 0.078125 -0.734375 0.25q-0.328125 0.15625 -0.53125 0.4375q-0.203125 0.28125 -0.203125 0.671875q0 0.5 0.46875 0.765625q0.484375 0.265625 1.1875 0.453125q0.703125 0.171875 1.53125 0.34375q0.828125 0.15625 1.53125 0.46875q0.703125 0.296875 1.171875 0.8125q0.46875 0.5 0.46875 1.375q0 1.3125 -1.03125 2.171875q-1.03125 0.859375 -3.109375 0.859375q-0.625 0 -1.234375 -0.125q-0.609375 -0.109375 -1.140625 -0.296875q-0.53125 -0.1875 -0.96875 -0.421875q-0.4375 -0.25 -0.71875 -0.5l0.765625 -1.234375q0.21875 0.234375 0.59375 0.46875q0.390625 0.234375 0.84375 0.4375q0.453125 0.1875 0.96875 0.296875q0.53125 0.109375 1.0625 0.109375q0.515625 0 0.953125 -0.078125q0.453125 -0.09375 0.796875 -0.265625q0.34375 -0.1875 0.546875 -0.46875q0.203125 -0.296875 0.203125 -0.71875zm3.4593887 -6.9375l2.25 0l0 -1.875l1.484375 -0.421875l0 2.296875l5.078125 0l0 1.265625l-5.078125 0l0 4.484375q0 1.390625 0.671875 2.0625q0.6875 0.65625 1.9375 0.65625q0.859375 0 1.484375 -0.3125q0.640625 -0.328125 1.15625 -0.703125l0.484375 1.109375q-0.65625 0.53125 -1.578125 0.859375q-0.921875 0.328125 -1.890625 0.328125q-0.765625 0 -1.4375 -0.21875q-0.671875 -0.21875 -1.1875 -0.671875q-0.515625 -0.46875 -0.828125 -1.171875q-0.296875 -0.71875 -0.296875 -1.703125l0 -4.71875l-2.25 0l0 -1.265625zm23.840637 0.734375q0.828125 -0.46875 1.84375 -0.671875q1.03125 -0.21875 2.015625 -0.21875q0.96875 0 1.578125 0.3125q0.625 0.296875 0.96875 0.78125q0.359375 0.484375 0.484375 1.109375q0.125 0.609375 0.125 1.234375q0 0.734375 -0.046875 1.546875q-0.03125 0.8125 -0.046875 1.625q0 0.953125 0.109375 1.8125l1.28125 0l0 1.234375l-2.53125 0l-0.171875 -1.421875l-0.09375 0q-0.109375 0.171875 -0.34375 0.4375q-0.234375 0.265625 -0.609375 0.53125q-0.359375 0.25 -0.890625 0.4375q-0.53125 0.1875 -1.25 0.1875q-1.40625 0 -2.234375 -0.71875q-0.8125 -0.71875 -0.8125 -1.984375q0 -0.96875 0.421875 -1.609375q0.4375 -0.640625 1.234375 -0.984375q0.796875 -0.34375 1.921875 -0.40625q1.140625 -0.0625 2.546875 0.15625q0.09375 -0.875 0.015625 -1.453125q-0.0625 -0.578125 -0.296875 -0.921875q-0.234375 -0.34375 -0.671875 -0.484375q-0.421875 -0.140625 -1.046875 -0.140625q-0.859375 0 -1.640625 0.234375q-0.765625 0.234375 -1.375 0.484375l-0.484375 -1.109375zm2.796875 7.65625q0.53125 0 0.984375 -0.15625q0.453125 -0.171875 0.796875 -0.4375q0.34375 -0.265625 0.5625 -0.578125q0.234375 -0.328125 0.359375 -0.609375l0 -1.328125q-0.984375 -0.171875 -1.828125 -0.171875q-0.828125 0 -1.4375 0.1875q-0.609375 0.171875 -0.953125 0.5625q-0.34375 0.375 -0.34375 0.984375q0 0.625 0.421875 1.09375q0.4375 0.453125 1.4375 0.453125zm8.178131 -5.0625q0 -0.171875 -0.015625 -0.4375q0 -0.28125 -0.03125 -0.578125q-0.015625 -0.296875 -0.046875 -0.578125q-0.03125 -0.296875 -0.0625 -0.5l-1.265625 0l0 -1.234375l2.515625 0l0.1875 1.328125l0.109375 0q0.5 -0.65625 1.28125 -1.109375q0.796875 -0.453125 1.9375 -0.453125q2.03125 0 3.0625 1.125q1.03125 1.125 1.03125 3.671875q0 1.1875 -0.359375 2.15625q-0.34375 0.953125 -1.0 1.625q-0.640625 0.65625 -1.5625 1.03125q-0.90625 0.359375 -2.0 0.359375q-0.40625 0 -0.71875 -0.03125q-0.3125 -0.03125 -0.578125 -0.078125q-0.25 -0.046875 -0.5 -0.125q-0.234375 -0.078125 -0.53125 -0.1875l0 3.984375l-1.453125 0l0 -9.96875zm4.359375 -2.171875q-0.5625 0 -1.078125 0.21875q-0.5 0.203125 -0.890625 0.546875q-0.375 0.34375 -0.625 0.765625q-0.25 0.40625 -0.3125 0.828125l0 4.328125q0.421875 0.28125 0.9375 0.453125q0.53125 0.15625 1.390625 0.15625q1.515625 0 2.421875 -1.0q0.921875 -1.0 0.921875 -2.90625q0 -1.625 -0.640625 -2.5q-0.640625 -0.890625 -2.125 -0.890625zm6.834381 2.171875q0 -0.171875 -0.015625 -0.4375q0 -0.28125 -0.03125 -0.578125q-0.015625 -0.296875 -0.046875 -0.578125q-0.03125 -0.296875 -0.0625 -0.5l-1.265625 0l0 -1.234375l2.515625 0l0.1875 1.328125l0.109375 0q0.5 -0.65625 1.28125 -1.109375q0.796875 -0.453125 1.9375 -0.453125q2.03125 0 3.0625 1.125q1.03125 1.125 1.03125 3.671875q0 1.1875 -0.359375 2.15625q-0.34375 0.953125 -1.0 1.625q-0.640625 0.65625 -1.5625 1.03125q-0.90625 0.359375 -2.0 0.359375q-0.40625 0 -0.71875 -0.03125q-0.3125 -0.03125 -0.578125 -0.078125q-0.25 -0.046875 -0.5 -0.125q-0.234375 -0.078125 -0.53125 -0.1875l0 3.984375l-1.453125 0l0 -9.96875zm4.359375 -2.171875q-0.5625 0 -1.078125 0.21875q-0.5 0.203125 -0.890625 0.546875q-0.375 0.34375 -0.625 0.765625q-0.25 0.40625 -0.3125 0.828125l0 4.328125q0.421875 0.28125 0.9375 0.453125q0.53125 0.15625 1.390625 0.15625q1.515625 0 2.421875 -1.0q0.921875 -1.0 0.921875 -2.90625q0 -1.625 -0.640625 -2.5q-0.640625 -0.890625 -2.125 -0.890625zm13.334381 5.78125q0 -0.609375 -0.484375 -0.9375q-0.46875 -0.34375 -1.171875 -0.53125q-0.703125 -0.203125 -1.53125 -0.375q-0.828125 -0.171875 -1.53125 -0.453125q-0.703125 -0.296875 -1.1875 -0.78125q-0.46875 -0.484375 -0.46875 -1.34375q0 -0.734375 0.3125 -1.234375q0.3125 -0.515625 0.828125 -0.84375q0.515625 -0.34375 1.203125 -0.5q0.6875 -0.171875 1.421875 -0.171875q1.328125 0 2.28125 0.34375q0.96875 0.328125 1.53125 0.6875l-0.59375 1.203125q-0.640625 -0.34375 -1.375 -0.65625q-0.71875 -0.3125 -1.828125 -0.3125q-0.421875 0 -0.828125 0.09375q-0.40625 0.078125 -0.734375 0.25q-0.328125 0.15625 -0.53125 0.4375q-0.203125 0.28125 -0.203125 0.671875q0 0.5 0.46875 0.765625q0.484375 0.265625 1.1875 0.453125q0.703125 0.171875 1.53125 0.34375q0.828125 0.15625 1.53125 0.46875q0.703125 0.296875 1.171875 0.8125q0.46875 0.5 0.46875 1.375q0 1.3125 -1.03125 2.171875q-1.03125 0.859375 -3.109375 0.859375q-0.625 0 -1.234375 -0.125q-0.609375 -0.109375 -1.140625 -0.296875q-0.53125 -0.1875 -0.96875 -0.421875q-0.4375 -0.25 -0.71875 -0.5l0.765625 -1.234375q0.21875 0.234375 0.59375 0.46875q0.390625 0.234375 0.84375 0.4375q0.453125 0.1875 0.96875 0.296875q0.53125 0.109375 1.0625 0.109375q0.515625 0 0.953125 -0.078125q0.453125 -0.09375 0.796875 -0.265625q0.34375 -0.1875 0.546875 -0.46875q0.203125 -0.296875 0.203125 -0.71875z" fill-rule="nonzero"></path><path fill="#ffffff" d="m24.183023 190.68796l1.203125 0.53125l-6.9375 15.65625l-1.1875 -0.53125l6.921875 -15.65625zm2.709381 0.234375l2.96875 0l0 4.96875l0.09375 0q0.578125 -0.65625 1.359375 -1.03125q0.7812481 -0.375 1.9374981 -0.375q0.921875 0 1.59375 0.203125q0.671875 0.1875 1.09375 0.671875q0.4375 0.46875 0.640625 1.296875q0.203125 0.8125 0.203125 2.09375l0 5.46875l-1.46875 0l0 -5.1875q0 -0.8125 -0.109375 -1.421875q-0.09375 -0.609375 -0.375 -1.015625q-0.265625 -0.40625 -0.75 -0.609375q-0.46875 -0.21875 -1.203125 -0.21875q-0.515625 0 -1.0156231 0.1875q-0.484375 0.171875 -0.890625 0.484375q-0.40625 0.3125 -0.703125 0.765625q-0.296875 0.4375 -0.40625 0.96875l0 6.046875l-1.46875 0l0 -12.03125l-1.5 0l0 -1.265625zm21.162504 12.09375q-0.34375 0.3125 -0.8125 0.578125q-0.453125 0.265625 -1.015625 0.453125q-0.546875 0.1875 -1.140625 0.296875q-0.59375 0.109375 -1.203125 0.109375q-1.140625 0 -2.015625 -0.34375q-0.875 -0.359375 -1.46875 -1.015625q-0.578125 -0.65625 -0.890625 -1.5625q-0.296875 -0.921875 -0.296875 -2.0625q0 -1.203125 0.328125 -2.125q0.328125 -0.9375 0.953125 -1.5625q0.625 -0.625 1.515625 -0.953125q0.90625 -0.34375 2.0 -0.34375q0.796875 0 1.578125 0.21875q0.78125 0.203125 1.375 0.78125q0.609375 0.578125 0.921875 1.59375q0.328125 1.015625 0.234375 2.640625l-7.359375 0q0 1.703125 0.921875 2.546875q0.921875 0.84375 2.46875 0.84375q0.515625 0 1.015625 -0.109375q0.5 -0.125 0.953125 -0.296875q0.453125 -0.171875 0.796875 -0.375q0.359375 -0.21875 0.5625 -0.390625l0.578125 1.078125zm-4.0 -7.265625q-0.625 0 -1.1875 0.140625q-0.5625 0.125 -1.0 0.4375q-0.421875 0.3125 -0.703125 0.8125q-0.265625 0.5 -0.34375 1.25l5.90625 0q-0.09375 -1.265625 -0.8125 -1.953125q-0.703125 -0.6875 -1.859375 -0.6875zm7.193756 -0.296875q0.828125 -0.46875 1.84375 -0.671875q1.03125 -0.21875 2.015625 -0.21875q0.96875 0 1.578125 0.3125q0.625 0.296875 0.96875 0.78125q0.359375 0.484375 0.484375 1.109375q0.125 0.609375 0.125 1.234375q0 0.734375 -0.046875 1.546875q-0.03125 0.8125 -0.046875 1.625q0 0.953125 0.109375 1.8125l1.28125 0l0 1.234375l-2.53125 0l-0.171875 -1.421875l-0.09375 0q-0.109375 0.171875 -0.34375 0.4375q-0.234375 0.265625 -0.609375 0.53125q-0.359375 0.25 -0.890625 0.4375q-0.53125 0.1875 -1.25 0.1875q-1.40625 0 -2.234375 -0.71875q-0.8125 -0.71875 -0.8125 -1.984375q0 -0.96875 0.421875 -1.609375q0.4375 -0.640625 1.234375 -0.984375q0.796875 -0.34375 1.921875 -0.40625q1.140625 -0.0625 2.546875 0.15625q0.09375 -0.875 0.015625 -1.453125q-0.0625 -0.578125 -0.296875 -0.921875q-0.234375 -0.34375 -0.671875 -0.484375q-0.421875 -0.140625 -1.046875 -0.140625q-0.859375 0 -1.640625 0.234375q-0.765625 0.234375 -1.375 0.484375l-0.484375 -1.109375zm2.796875 7.65625q0.53125 0 0.984375 -0.15625q0.453125 -0.171875 0.796875 -0.4375q0.34375 -0.265625 0.5625 -0.578125q0.234375 -0.328125 0.359375 -0.609375l0 -1.328125q-0.984375 -0.171875 -1.828125 -0.171875q-0.828125 0 -1.4375 0.1875q-0.609375 0.171875 -0.953125 0.5625q-0.34375 0.375 -0.34375 0.984375q0 0.625 0.421875 1.09375q0.4375 0.453125 1.4375 0.453125zm7.678131 -12.1875l3.15625 0l0 10.109375q0 1.15625 0.390625 1.640625q0.390625 0.46875 1.140625 0.46875q0.546875 0 1.09375 -0.203125q0.546875 -0.21875 1.0 -0.59375l0.6875 1.0q-0.296875 0.265625 -0.671875 0.484375q-0.359375 0.203125 -0.734375 0.34375q-0.375 0.140625 -0.765625 0.21875q-0.375 0.078125 -0.703125 0.078125q-0.703125 0 -1.25 -0.1875q-0.546875 -0.171875 -0.921875 -0.5625q-0.375 -0.40625 -0.5625 -1.0625q-0.1875 -0.65625 -0.1875 -1.625l0 -8.84375l-1.671875 0l0 -1.265625zm10.459381 3.796875l2.25 0l0 -1.875l1.484375 -0.421875l0 2.296875l5.078125 0l0 1.265625l-5.078125 0l0 4.484375q0 1.390625 0.671875 2.0625q0.6875 0.65625 1.9375 0.65625q0.859375 0 1.484375 -0.3125q0.640625 -0.328125 1.15625 -0.703125l0.484375 1.109375q-0.65625 0.53125 -1.578125 0.859375q-0.921875 0.328125 -1.890625 0.328125q-0.765625 0 -1.4375 -0.21875q-0.671875 -0.21875 -1.1875 -0.671875q-0.515625 -0.46875 -0.828125 -1.171875q-0.296875 -0.71875 -0.296875 -1.703125l0 -4.71875l-2.25 0l0 -1.265625zm10.678131 -3.796875l2.96875 0l0 4.96875l0.09375 0q0.578125 -0.65625 1.359375 -1.03125q0.78125 -0.375 1.9375 -0.375q0.921875 0 1.59375 0.203125q0.671875 0.1875 1.09375 0.671875q0.4375 0.46875 0.640625 1.296875q0.203125 0.8125 0.203125 2.09375l0 5.46875l-1.46875 0l0 -5.1875q0 -0.8125 -0.109375 -1.421875q-0.09375 -0.609375 -0.375 -1.015625q-0.265625 -0.40625 -0.75 -0.609375q-0.46875 -0.21875 -1.203125 -0.21875q-0.515625 0 -1.015625 0.1875q-0.484375 0.171875 -0.890625 0.484375q-0.40625 0.3125 -0.703125 0.765625q-0.296875 0.4375 -0.40625 0.96875l0 6.046875l-1.46875 0l0 -12.03125l-1.5 0l0 -1.265625z" fill-rule="nonzero"></path><path fill="#ffffff" d="m24.183023 212.68796l1.203125 0.53125l-6.9375 15.65625l-1.1875 -0.53125l6.921875 -15.65625zm4.631256 13.53125l0 -1.265625l3.296873 0l0 -6.96875l-3.296873 0l0 -1.265625l4.828123 0l0 8.234375l3.21875 0l0 1.265625l-8.046873 0zm2.78125 -12.203125q0 -0.515625 0.34375 -0.875q0.3437481 -0.375 0.8749981 -0.375q0.5625 0 0.921875 0.375q0.375 0.359375 0.375 0.875q0 0.5 -0.375 0.84375q-0.359375 0.34375 -0.921875 0.34375q-0.53125 0 -0.8749981 -0.34375q-0.34375 -0.34375 -0.34375 -0.84375zm8.178129 6.03125q0 -0.171875 -0.015625 -0.4375q0 -0.28125 -0.03125 -0.578125q-0.015625 -0.296875 -0.046875 -0.578125q-0.015625 -0.296875 -0.0625 -0.5l-1.265625 0l0 -1.234375l2.546875 0l0.171875 1.53125l0.09375 0q0.1875 -0.3125 0.5 -0.625q0.3125 -0.3125 0.734375 -0.5625q0.421875 -0.265625 0.921875 -0.421875q0.515625 -0.15625 1.09375 -0.15625q0.875 0 1.546875 0.203125q0.671875 0.1875 1.109375 0.671875q0.453125 0.484375 0.671875 1.3125q0.234375 0.828125 0.234375 2.09375l0 5.453125l-1.46875 0l0 -5.171875q0 -1.578125 -0.515625 -2.375q-0.515625 -0.796875 -1.859375 -0.796875q-0.5 0 -0.96875 0.203125q-0.46875 0.203125 -0.84375 0.53125q-0.375 0.3125 -0.671875 0.75q-0.28125 0.421875 -0.40625 0.890625l0 5.96875l-1.46875 0l0 -6.171875zm11.100006 6.171875l0 -1.265625l2.265625 0l0 -6.96875l-2.265625 0l0 -1.265625l2.265625 0l0 -0.53125q0 -1.78125 0.921875 -2.578125q0.9375 -0.796875 2.671875 -0.796875q0.625 0 1.109375 0.078125q0.5 0.0625 1.0625 0.296875l-0.34375 1.234375q-0.484375 -0.21875 -0.9375 -0.28125q-0.453125 -0.0625 -0.84375 -0.0625q-1.25 0 -1.703125 0.625q-0.453125 0.609375 -0.453125 2.015625l3.921875 0l0 1.265625l-3.921875 0l0 6.96875l3.921875 0l0 1.265625l-7.671875 0zm10.600006 -4.75q0 -2.296875 1.203125 -3.640625q1.203125 -1.34375 3.421875 -1.34375q1.1875 0 2.046875 0.390625q0.875 0.390625 1.4375 1.0625q0.578125 0.65625 0.84375 1.578125q0.28125 0.90625 0.28125 1.953125q0 1.140625 -0.3125 2.0625q-0.296875 0.921875 -0.890625 1.578125q-0.578125 0.640625 -1.453125 1.0q-0.859375 0.34375 -1.953125 0.34375q-1.1875 0 -2.0625 -0.390625q-0.859375 -0.390625 -1.4375 -1.046875q-0.5625 -0.671875 -0.84375 -1.578125q-0.28125 -0.921875 -0.28125 -1.96875zm1.578125 0q0 0.671875 0.15625 1.34375q0.171875 0.65625 0.53125 1.1875q0.359375 0.53125 0.9375 0.859375q0.578125 0.3125 1.421875 0.3125q1.515625 0 2.28125 -0.9375q0.78125 -0.9375 0.78125 -2.765625q0 -0.6875 -0.171875 -1.34375q-0.15625 -0.65625 -0.53125 -1.1875q-0.375 -0.53125 -0.953125 -0.84375q-0.578125 -0.328125 -1.40625 -0.328125q-1.515625 0 -2.28125 0.9375q-0.765625 0.921875 -0.765625 2.765625z" fill-rule="nonzero"></path><path fill="#ffffff" d="m24.183023 234.68796l1.203125 0.53125l-6.9375 15.65625l-1.1875 -0.53125l6.921875 -15.65625zm7.615631 13.53125l0 -6.328125q0 -0.390625 -0.03125 -0.765625q-0.03125 -0.375 -0.140625 -0.671875q-0.09375 -0.296875 -0.296875 -0.453125q-0.203125 -0.171875 -0.53125 -0.171875q-0.640625 0 -1.09375 0.53125q-0.4375 0.53125 -0.671875 1.328125l0 6.53125l-1.4375 0l0 -9.5l0.984375 0l0.28125 1.15625l0.078125 0q0.1875 -0.28125 0.359375 -0.53125q0.1875 -0.265625 0.421875 -0.453125q0.25 -0.1875 0.5625 -0.296875q0.328125 -0.109375 0.828125 -0.109375q0.28125 0 0.578125 0.09375q0.3124981 0.078125 0.5624981 0.265625q0.265625 0.171875 0.453125 0.484375q0.1875 0.296875 0.25 0.734375q0.4375 -0.734375 0.96875 -1.15625q0.546875 -0.421875 1.5 -0.421875q0.625 0 1.015625 0.21875q0.390625 0.203125 0.609375 0.59375q0.21875 0.390625 0.296875 0.9375q0.09375 0.53125 0.09375 1.203125l0 6.78125l-1.453125 0l0 -6.453125q0 -0.40625 -0.046875 -0.75q-0.03125 -0.359375 -0.140625 -0.625q-0.09375 -0.265625 -0.28125 -0.40625q-0.171875 -0.15625 -0.46875 -0.15625q-0.671875 0 -1.125 0.53125q-0.453125 0.53125 -0.6875 1.515625l0 6.34375l-1.4374981 0zm16.256254 -1.203125q-0.34375 0.3125 -0.8125 0.578125q-0.453125 0.265625 -1.015625 0.453125q-0.546875 0.1875 -1.140625 0.296875q-0.59375 0.109375 -1.203125 0.109375q-1.140625 0 -2.015625 -0.34375q-0.875 -0.359375 -1.46875 -1.015625q-0.578125 -0.65625 -0.890625 -1.5625q-0.296875 -0.921875 -0.296875 -2.0625q0 -1.203125 0.328125 -2.125q0.328125 -0.9375 0.953125 -1.5625q0.625 -0.625 1.515625 -0.953125q0.90625 -0.34375 2.0 -0.34375q0.796875 0 1.578125 0.21875q0.78125 0.203125 1.375 0.78125q0.609375 0.578125 0.921875 1.59375q0.328125 1.015625 0.234375 2.640625l-7.359375 0q0 1.703125 0.921875 2.546875q0.921875 0.84375 2.46875 0.84375q0.515625 0 1.015625 -0.109375q0.5 -0.125 0.953125 -0.296875q0.453125 -0.171875 0.796875 -0.375q0.359375 -0.21875 0.5625 -0.390625l0.578125 1.078125zm-4.0 -7.265625q-0.625 0 -1.1875 0.140625q-0.5625 0.125 -1.0 0.4375q-0.421875 0.3125 -0.703125 0.8125q-0.265625 0.5 -0.34375 1.25l5.90625 0q-0.09375 -1.265625 -0.8125 -1.953125q-0.703125 -0.6875 -1.859375 -0.6875zm5.740631 -1.03125l2.25 0l0 -1.875l1.484375 -0.421875l0 2.296875l5.078125 0l0 1.265625l-5.078125 0l0 4.484375q0 1.390625 0.671875 2.0625q0.6875 0.65625 1.9375 0.65625q0.859375 0 1.484375 -0.3125q0.640625 -0.328125 1.15625 -0.703125l0.484375 1.109375q-0.65625 0.53125 -1.578125 0.859375q-0.921875 0.328125 -1.890625 0.328125q-0.765625 0 -1.4375 -0.21875q-0.671875 -0.21875 -1.1875 -0.671875q-0.515625 -0.46875 -0.828125 -1.171875q-0.296875 -0.71875 -0.296875 -1.703125l0 -4.71875l-2.25 0l0 -1.265625zm11.850006 9.5l0 -1.265625l2.5625 0l0 -6.96875l-2.5625 0l0 -1.265625l3.5625 0l0.296875 1.234375l0.09375 0q0.65625 -0.59375 1.453125 -1.0q0.796875 -0.421875 1.890625 -0.421875q0.65625 0 1.03125 0.25q0.390625 0.234375 0.609375 0.71875q0.21875 0.46875 0.296875 1.15625q0.078125 0.671875 0.078125 1.515625l-1.328125 0.03125q0 -1.21875 -0.234375 -1.78125q-0.234375 -0.578125 -0.875 -0.578125q-0.578125 0 -1.0625 0.171875q-0.46875 0.171875 -0.828125 0.421875q-0.34375 0.234375 -0.59375 0.484375q-0.25 0.25 -0.359375 0.421875l0 5.609375l3.65625 0l0 1.265625l-7.6875 0zm11.943756 0l0 -1.265625l3.296875 0l0 -6.96875l-3.296875 0l0 -1.265625l4.828125 0l0 8.234375l3.21875 0l0 1.265625l-8.046875 0zm2.78125 -12.203125q0 -0.515625 0.34375 -0.875q0.34375 -0.375 0.875 -0.375q0.5625 0 0.921875 0.375q0.375 0.359375 0.375 0.875q0 0.5 -0.375 0.84375q-0.359375 0.34375 -0.921875 0.34375q-0.53125 0 -0.875 -0.34375q-0.34375 -0.34375 -0.34375 -0.84375zm14.756256 4.171875q-0.4375 -0.15625 -0.953125 -0.25q-0.5 -0.109375 -0.984375 -0.109375q-1.859375 0 -2.78125 0.875q-0.90625 0.859375 -0.90625 2.765625q0 0.84375 0.265625 1.5q0.265625 0.640625 0.75 1.109375q0.5 0.453125 1.1875 0.703125q0.703125 0.234375 1.53125 0.234375q0.90625 0 1.75 -0.296875q0.84375 -0.3125 1.40625 -0.796875l0.671875 1.09375q-0.265625 0.234375 -0.671875 0.484375q-0.390625 0.25 -0.921875 0.46875q-0.515625 0.21875 -1.15625 0.34375q-0.640625 0.140625 -1.375 0.140625q-1.234375 0 -2.171875 -0.34375q-0.9375 -0.359375 -1.578125 -1.015625q-0.625 -0.65625 -0.953125 -1.578125q-0.3125 -0.921875 -0.3125 -2.046875q0 -1.203125 0.328125 -2.125q0.34375 -0.9375 0.96875 -1.5625q0.625 -0.625 1.515625 -0.953125q0.890625 -0.34375 2.0 -0.34375q1.40625 0 2.28125 0.25q0.890625 0.25 1.5 0.546875l-0.03125 0.0625l0 2.640625l-1.359375 0l0 -1.796875zm11.178131 5.46875q0 -0.609375 -0.484375 -0.9375q-0.46875 -0.34375 -1.171875 -0.53125q-0.703125 -0.203125 -1.53125 -0.375q-0.828125 -0.171875 -1.53125 -0.453125q-0.703125 -0.296875 -1.1875 -0.78125q-0.46875 -0.484375 -0.46875 -1.34375q0 -0.734375 0.3125 -1.234375q0.3125 -0.515625 0.828125 -0.84375q0.515625 -0.34375 1.203125 -0.5q0.6875 -0.171875 1.421875 -0.171875q1.328125 0 2.28125 0.34375q0.96875 0.328125 1.53125 0.6875l-0.59375 1.203125q-0.640625 -0.34375 -1.375 -0.65625q-0.71875 -0.3125 -1.828125 -0.3125q-0.421875 0 -0.828125 0.09375q-0.40625 0.078125 -0.734375 0.25q-0.328125 0.15625 -0.53125 0.4375q-0.203125 0.28125 -0.203125 0.671875q0 0.5 0.46875 0.765625q0.484375 0.265625 1.1875 0.453125q0.703125 0.171875 1.53125 0.34375q0.828125 0.15625 1.53125 0.46875q0.703125 0.296875 1.171875 0.8125q0.46875 0.5 0.46875 1.375q0 1.3125 -1.03125 2.171875q-1.03125 0.859375 -3.109375 0.859375q-0.625 0 -1.234375 -0.125q-0.609375 -0.109375 -1.140625 -0.296875q-0.53125 -0.1875 -0.96875 -0.421875q-0.4375 -0.25 -0.71875 -0.5l0.765625 -1.234375q0.21875 0.234375 0.59375 0.46875q0.390625 0.234375 0.84375 0.4375q0.453125 0.1875 0.96875 0.296875q0.53125 0.109375 1.0625 0.109375q0.515625 0 0.953125 -0.078125q0.453125 -0.09375 0.796875 -0.265625q0.34375 -0.1875 0.546875 -0.46875q0.203125 -0.296875 0.203125 -0.71875z" fill-rule="nonzero"></path><path fill="#6aa84f" d="m356.2966 171.30708l0 0c0 -17.020798 15.179993 -30.818893 33.905487 -30.818893l0 0c18.725494 0 33.905518 13.798096 33.905518 30.818893l0 0c0 17.020813 -15.180023 30.818909 -33.905518 30.818909l0 0c-18.725494 0 -33.905487 -13.798096 -33.905487 -30.818909z" fill-rule="evenodd"></path><path stroke="#000000" stroke-width="1.0" stroke-linejoin="round" stroke-linecap="butt" d="m356.2966 171.30708l0 0c0 -17.020798 15.179993 -30.818893 33.905487 -30.818893l0 0c18.725494 0 33.905518 13.798096 33.905518 30.818893l0 0c0 17.020813 -15.180023 30.818909 -33.905518 30.818909l0 0c-18.725494 0 -33.905487 -13.798096 -33.905487 -30.818909z" fill-rule="evenodd"></path><path fill="#ffffff" d="m378.1332 175.04709l0 -0.734375l1.5 0l0 -4.03125l-1.5 0l0 -0.734375l2.0625 0l0.171875 0.71875l0.0625 0q0.375 -0.34375 0.828125 -0.578125q0.46875 -0.25 1.109375 -0.25q0.375 0 0.59375 0.140625q0.234375 0.140625 0.359375 0.421875q0.125 0.265625 0.15625 0.65625q0.046875 0.390625 0.046875 0.890625l-0.765625 0.015625q0 -0.703125 -0.140625 -1.03125q-0.125 -0.328125 -0.5 -0.328125q-0.34375 0 -0.625 0.09375q-0.265625 0.09375 -0.46875 0.25q-0.203125 0.140625 -0.34375 0.28125q-0.140625 0.140625 -0.203125 0.234375l0 3.25l2.109375 0l0 0.734375l-4.453125 0zm9.675079 -5.5l1.5625 0l0 3.75q0 0.546875 0.0625 1.03125l0.734375 0l0 0.71875l-1.46875 0l-0.03125 -0.9375l-0.046875 0q-0.28125 0.46875 -0.75 0.765625q-0.46875 0.296875 -1.140625 0.296875q-0.515625 0 -0.875 -0.109375q-0.359375 -0.109375 -0.59375 -0.390625q-0.21875 -0.296875 -0.328125 -0.765625q-0.109375 -0.484375 -0.109375 -1.203125l0 -2.421875l-0.734375 0l0 -0.734375l1.59375 0l0 2.984375q0 0.453125 0.03125 0.8125q0.046875 0.34375 0.15625 0.59375q0.125 0.25 0.359375 0.375q0.234375 0.125 0.640625 0.125q0.5625 0 0.984375 -0.375q0.4375 -0.375 0.65625 -0.921875l0 -2.859375l-0.703125 0l0 -0.734375zm2.4094238 -2.203125l1.765625 0l0 2.828125l0.0625 0q0.28125 -0.359375 0.734375 -0.546875q0.453125 -0.203125 0.96875 -0.203125q2.421875 0 2.421875 2.78125q0 1.421875 -0.78125 2.1875q-0.78125 0.75 -2.21875 0.75q-0.6875 0 -1.234375 -0.125q-0.546875 -0.140625 -0.796875 -0.328125l0 -6.609375l-0.921875 0l0 -0.734375zm3.421875 2.8125q-0.65625 0 -1.0625 0.375q-0.40625 0.375 -0.59375 1.046875l0 2.53125q0.25 0.140625 0.59375 0.21875q0.359375 0.0625 0.75 0.0625q0.4375 0 0.796875 -0.125q0.359375 -0.125 0.609375 -0.390625q0.25 -0.265625 0.390625 -0.6875q0.140625 -0.421875 0.140625 -0.984375q0 -0.421875 -0.09375 -0.796875q-0.078125 -0.375 -0.28125 -0.65625q-0.1875 -0.28125 -0.5 -0.4375q-0.296875 -0.15625 -0.75 -0.15625zm6.3782043 4.046875l0.421875 0l1.359375 -4.65625l0.890625 0l-1.53125 4.9375q-0.125 0.390625 -0.25 0.875q-0.125 0.484375 -0.359375 0.90625q-0.21875 0.4375 -0.625 0.734375q-0.390625 0.296875 -1.03125 0.296875q-0.140625 0 -0.296875 -0.03125q-0.15625 -0.03125 -0.3125 -0.078125q-0.15625 -0.046875 -0.296875 -0.125q-0.125 -0.0625 -0.1875 -0.125l0.296875 -0.796875q0.078125 0.0625 0.1875 0.109375q0.109375 0.0625 0.25 0.09375q0.140625 0.046875 0.265625 0.0625q0.140625 0.03125 0.234375 0.03125q0.8125 0 1.109375 -1.390625l-0.734375 0l-2.3125 -5.5l1.0 0l1.921875 4.65625z" fill-rule="nonzero"></path><path fill="#b4a7d6" d="m356.2966 241.55118l0 0c0 -17.020798 15.179993 -30.818893 33.905487 -30.818893l0 0c18.725494 0 33.905518 13.798096 33.905518 30.818893l0 0c0 17.020813 -15.180023 30.818909 -33.905518 30.818909l0 0c-18.725494 0 -33.905487 -13.798096 -33.905487 -30.818909z" fill-rule="evenodd"></path><path stroke="#000000" stroke-width="1.0" stroke-linejoin="round" stroke-linecap="butt" d="m356.2966 241.55118l0 0c0 -17.020798 15.179993 -30.818893 33.905487 -30.818893l0 0c18.725494 0 33.905518 13.798096 33.905518 30.818893l0 0c0 17.020813 -15.180023 30.818909 -33.905518 30.818909l0 0c-18.725494 0 -33.905487 -13.798096 -33.905487 -30.818909z" fill-rule="evenodd"></path><path fill="#ffffff" d="m379.97696 244.68181q0 -0.34375 0.1875 -0.53125q0.203125 -0.203125 0.53125 -0.203125q0.359375 0 0.546875 0.203125q0.203125 0.1875 0.203125 0.53125q0 0.328125 -0.203125 0.53125q-0.1875 0.203125 -0.546875 0.203125q-0.328125 0 -0.53125 -0.203125q-0.1875 -0.203125 -0.1875 -0.53125zm4.8469543 -2.96875q0 -0.09375 0 -0.25q0 -0.171875 -0.015625 -0.328125q-0.015625 -0.171875 -0.03125 -0.328125q-0.015625 -0.171875 -0.03125 -0.296875l-0.734375 0l0 -0.71875l1.46875 0l0.09375 0.890625l0.0625 0q0.109375 -0.1875 0.28125 -0.359375q0.1875 -0.1875 0.421875 -0.328125q0.25 -0.15625 0.546875 -0.234375q0.296875 -0.09375 0.625 -0.09375q0.515625 0 0.90625 0.109375q0.390625 0.109375 0.640625 0.390625q0.265625 0.28125 0.390625 0.765625q0.140625 0.46875 0.140625 1.203125l0 3.15625l-0.859375 0l0 -2.984375q0 -0.921875 -0.296875 -1.375q-0.296875 -0.46875 -1.078125 -0.46875q-0.296875 0 -0.5625 0.125q-0.265625 0.109375 -0.484375 0.296875q-0.21875 0.1875 -0.390625 0.4375q-0.15625 0.234375 -0.234375 0.515625l0 3.453125l-0.859375 0l0 -3.578125zm11.190674 2.890625q-0.1875 0.171875 -0.46875 0.328125q-0.265625 0.15625 -0.59375 0.265625q-0.3125 0.109375 -0.65625 0.15625q-0.34375 0.0625 -0.6875 0.0625q-0.671875 0 -1.171875 -0.203125q-0.5 -0.203125 -0.84375 -0.578125q-0.34375 -0.375 -0.53125 -0.90625q-0.171875 -0.53125 -0.171875 -1.1875q0 -0.6875 0.1875 -1.21875q0.203125 -0.546875 0.5625 -0.90625q0.359375 -0.375 0.875 -0.5625q0.53125 -0.1875 1.15625 -0.1875q0.46875 0 0.921875 0.125q0.453125 0.109375 0.796875 0.453125q0.34375 0.328125 0.53125 0.921875q0.1875 0.578125 0.140625 1.515625l-4.265625 0q0 1.0 0.53125 1.484375q0.53125 0.484375 1.421875 0.484375q0.296875 0 0.59375 -0.0625q0.296875 -0.078125 0.5625 -0.171875q0.265625 -0.109375 0.46875 -0.21875q0.203125 -0.125 0.3125 -0.21875l0.328125 0.625zm-2.3125 -4.21875q-0.359375 0 -0.6875 0.078125q-0.328125 0.078125 -0.578125 0.265625q-0.25 0.171875 -0.40625 0.46875q-0.15625 0.28125 -0.203125 0.71875l3.421875 0q-0.046875 -0.734375 -0.46875 -1.125q-0.40625 -0.40625 -1.078125 -0.40625zm3.2375793 -0.59375l1.3125 0l0 -1.09375l0.859375 -0.234375l0 1.328125l2.921875 0l0 0.734375l-2.921875 0l0 2.59375q0 0.8125 0.375 1.203125q0.390625 0.375 1.125 0.375q0.5 0 0.859375 -0.1875q0.375 -0.1875 0.671875 -0.40625l0.28125 0.65625q-0.390625 0.296875 -0.921875 0.484375q-0.53125 0.1875 -1.09375 0.1875q-0.4375 0 -0.828125 -0.125q-0.390625 -0.125 -0.6875 -0.390625q-0.296875 -0.265625 -0.46875 -0.671875q-0.171875 -0.421875 -0.171875 -0.984375l0 -2.734375l-1.3125 0l0 -0.734375z" fill-rule="nonzero"></path><path fill="#a4c2f4" d="m242.87138 367.2756l0 0c0 -17.020813 15.180008 -30.818909 33.905533 -30.818909l0 0c18.725494 0 33.905487 13.798096 33.905487 30.818909l0 0c0 17.020782 -15.179993 30.818878 -33.905487 30.818878l0 0c-18.725525 0 -33.905533 -13.798096 -33.905533 -30.818878z" fill-rule="evenodd"></path><path stroke="#000000" stroke-width="1.0" stroke-linejoin="round" stroke-linecap="butt" d="m242.87138 367.2756l0 0c0 -17.020813 15.180008 -30.818909 33.905533 -30.818909l0 0c18.725494 0 33.905487 13.798096 33.905487 30.818909l0 0c0 17.020782 -15.179993 30.818878 -33.905487 30.818878l0 0c-18.725525 0 -33.905533 -13.798096 -33.905533 -30.818878z" fill-rule="evenodd"></path><path fill="#ffffff" d="m268.2487 367.43747q0 -0.09375 -0.015625 -0.25q0 -0.171875 -0.015625 -0.328125q-0.015625 -0.171875 -0.03125 -0.328125q-0.015625 -0.171875 -0.03125 -0.296875l-0.734375 0l0 -0.71875l1.453125 0l0.109375 0.765625l0.0625 0q0.296875 -0.375 0.75 -0.625q0.453125 -0.265625 1.125 -0.265625q1.171875 0 1.765625 0.65625q0.59375 0.640625 0.59375 2.109375q0 0.6875 -0.203125 1.25q-0.203125 0.546875 -0.578125 0.9375q-0.375 0.390625 -0.90625 0.59375q-0.515625 0.203125 -1.15625 0.203125q-0.234375 0 -0.421875 -0.015625q-0.171875 -0.015625 -0.328125 -0.046875q-0.140625 -0.015625 -0.296875 -0.0625q-0.140625 -0.046875 -0.296875 -0.109375l0 2.3125l-0.84375 0l0 -5.78125zm2.53125 -1.25q-0.34375 0 -0.640625 0.125q-0.28125 0.109375 -0.515625 0.3125q-0.21875 0.203125 -0.359375 0.453125q-0.140625 0.234375 -0.171875 0.46875l0 2.515625q0.234375 0.15625 0.53125 0.25q0.3125 0.09375 0.8125 0.09375q0.875 0 1.40625 -0.578125q0.53125 -0.578125 0.53125 -1.6875q0 -0.9375 -0.375 -1.4375q-0.375 -0.515625 -1.21875 -0.515625zm2.8469238 -2.875l1.71875 0l0 2.890625l0.046875 0q0.34375 -0.390625 0.796875 -0.59375q0.453125 -0.21875 1.125 -0.21875q0.515625 0 0.90625 0.109375q0.390625 0.109375 0.640625 0.390625q0.25 0.265625 0.375 0.75q0.125 0.46875 0.125 1.203125l0 3.171875l-0.859375 0l0 -3.0q0 -0.46875 -0.0625 -0.828125q-0.046875 -0.359375 -0.21875 -0.59375q-0.15625 -0.234375 -0.4375 -0.34375q-0.265625 -0.125 -0.6875 -0.125q-0.296875 0 -0.59375 0.109375q-0.28125 0.09375 -0.515625 0.28125q-0.234375 0.171875 -0.40625 0.4375q-0.171875 0.25 -0.234375 0.5625l0 3.5l-0.859375 0l0 -6.96875l-0.859375 0l0 -0.734375zm7.4094543 4.125q0 -0.09375 -0.015625 -0.25q0 -0.171875 -0.015625 -0.328125q-0.015625 -0.171875 -0.03125 -0.328125q-0.015625 -0.171875 -0.03125 -0.296875l-0.734375 0l0 -0.71875l1.453125 0l0.109375 0.765625l0.0625 0q0.296875 -0.375 0.75 -0.625q0.453125 -0.265625 1.125 -0.265625q1.171875 0 1.765625 0.65625q0.59375 0.640625 0.59375 2.109375q0 0.6875 -0.203125 1.25q-0.203125 0.546875 -0.578125 0.9375q-0.375 0.390625 -0.90625 0.59375q-0.515625 0.203125 -1.15625 0.203125q-0.234375 0 -0.421875 -0.015625q-0.171875 -0.015625 -0.328125 -0.046875q-0.140625 -0.015625 -0.296875 -0.0625q-0.140625 -0.046875 -0.296875 -0.109375l0 2.3125l-0.84375 0l0 -5.78125zm2.53125 -1.25q-0.34375 0 -0.640625 0.125q-0.28125 0.109375 -0.515625 0.3125q-0.21875 0.203125 -0.359375 0.453125q-0.140625 0.234375 -0.171875 0.46875l0 2.515625q0.234375 0.15625 0.53125 0.25q0.3125 0.09375 0.8125 0.09375q0.875 0 1.40625 -0.578125q0.53125 -0.578125 0.53125 -1.6875q0 -0.9375 -0.375 -1.4375q-0.375 -0.515625 -1.21875 -0.515625z" fill-rule="nonzero"></path><path fill="#6d9eeb" d="m310.6824 101.062996l0 0c0 -17.020813 15.180023 -30.818901 33.905518 -30.818901l0 0c18.725494 0 33.905518 13.798088 33.905518 30.818901l0 0c0 17.020805 -15.180023 30.818901 -33.905518 30.818901l0 0c-18.725494 0 -33.905518 -13.798096 -33.905518 -30.818901z" fill-rule="evenodd"></path><path stroke="#000000" stroke-width="1.0" stroke-linejoin="round" stroke-linecap="butt" d="m310.6824 101.062996l0 0c0 -17.020813 15.180023 -30.818901 33.905518 -30.818901l0 0c18.725494 0 33.905518 13.798088 33.905518 30.818901l0 0c0 17.020805 -15.180023 30.818901 -33.905518 30.818901l0 0c-18.725494 0 -33.905518 -13.798096 -33.905518 -30.818901z" fill-rule="evenodd"></path><path fill="#ffffff" d="m334.3628 104.19362q0 -0.34375 0.1875 -0.53125q0.203125 -0.203125 0.53125 -0.203125q0.359375 0 0.546875 0.203125q0.203125 0.1875 0.203125 0.53125q0 0.328125 -0.203125 0.53125q-0.1875 0.203125 -0.546875 0.203125q-0.328125 0 -0.53125 -0.203125q-0.1875 -0.203125 -0.1875 -0.53125zm4.8469543 -2.96875q0 -0.09375 0 -0.25q0 -0.171875 -0.015625 -0.328125q-0.015625 -0.171875 -0.03125 -0.328125q-0.015625 -0.171875 -0.03125 -0.296875l-0.734375 0l0 -0.71875l1.46875 0l0.09375 0.890625l0.0625 0q0.109375 -0.1875 0.28125 -0.359375q0.1875 -0.1875 0.421875 -0.328125q0.25 -0.15625 0.546875 -0.234375q0.296875 -0.09375 0.625 -0.09375q0.515625 0 0.90625 0.109375q0.390625 0.109375 0.640625 0.390625q0.265625 0.28125 0.390625 0.765625q0.140625 0.46875 0.140625 1.203125l0 3.15625l-0.859375 0l0 -2.984375q0 -0.921875 -0.296875 -1.375q-0.296875 -0.46875 -1.078125 -0.46875q-0.296875 0 -0.5625 0.125q-0.265625 0.109375 -0.484375 0.296875q-0.21875 0.1875 -0.390625 0.4375q-0.15625 0.234375 -0.234375 0.515625l0 3.453125l-0.859375 0l0 -3.578125zm11.190674 2.890625q-0.1875 0.171875 -0.46875 0.328125q-0.265625 0.15625 -0.59375 0.265625q-0.3125 0.109375 -0.65625 0.15625q-0.34375 0.0625 -0.6875 0.0625q-0.671875 0 -1.171875 -0.203125q-0.5 -0.203125 -0.84375 -0.578125q-0.34375 -0.375 -0.53125 -0.90625q-0.171875 -0.53125 -0.171875 -1.1875q0 -0.6875 0.1875 -1.21875q0.203125 -0.546875 0.5625 -0.90625q0.359375 -0.375 0.875 -0.5625q0.53125 -0.1875 1.15625 -0.1875q0.46875 0 0.921875 0.125q0.453125 0.109375 0.796875 0.453125q0.34375 0.328125 0.53125 0.921875q0.1875 0.578125 0.140625 1.515625l-4.265625 0q0 1.0 0.53125 1.484375q0.53125 0.484375 1.421875 0.484375q0.296875 0 0.59375 -0.0625q0.296875 -0.078125 0.5625 -0.171875q0.265625 -0.109375 0.46875 -0.21875q0.203125 -0.125 0.3125 -0.21875l0.328125 0.625zm-2.3125 -4.21875q-0.359375 0 -0.6875 0.078125q-0.328125 0.078125 -0.578125 0.265625q-0.25 0.171875 -0.40625 0.46875q-0.15625 0.28125 -0.203125 0.71875l3.421875 0q-0.046875 -0.734375 -0.46875 -1.125q-0.40625 -0.40625 -1.078125 -0.40625zm3.2375793 -0.59375l1.3125 0l0 -1.09375l0.859375 -0.234375l0 1.328125l2.921875 0l0 0.734375l-2.921875 0l0 2.59375q0 0.8125 0.375 1.203125q0.390625 0.375 1.125 0.375q0.5 0 0.859375 -0.1875q0.375 -0.1875 0.671875 -0.40625l0.28125 0.65625q-0.390625 0.296875 -0.921875 0.484375q-0.53125 0.1875 -1.09375 0.1875q-0.4375 0 -0.828125 -0.125q-0.390625 -0.125 -0.6875 -0.390625q-0.296875 -0.265625 -0.46875 -0.671875q-0.171875 -0.421875 -0.171875 -0.984375l0 -2.734375l-1.3125 0l0 -0.734375z" fill-rule="nonzero"></path><path fill="#a2c4c9" d="m424.1076 114.5958l0 0c0 -17.020805 15.180023 -30.818901 33.905518 -30.818901l0 0c18.725494 0 33.905518 13.798096 33.905518 30.818901l0 0c0 17.020805 -15.180023 30.818901 -33.905518 30.818901l0 0c-18.725494 0 -33.905518 -13.798096 -33.905518 -30.818901z" fill-rule="evenodd"></path><path stroke="#000000" stroke-width="1.0" stroke-linejoin="round" stroke-linecap="butt" d="m424.1076 114.5958l0 0c0 -17.020805 15.180023 -30.818901 33.905518 -30.818901l0 0c18.725494 0 33.905518 13.798096 33.905518 30.818901l0 0c0 17.020805 -15.180023 30.818901 -33.905518 30.818901l0 0c-18.725494 0 -33.905518 -13.798096 -33.905518 -30.818901z" fill-rule="evenodd"></path><path fill="#ffffff" d="m452.4224 112.8358l1.5625 0l0 3.75q0 0.546875 0.0625 1.03125l0.734375 0l0 0.71875l-1.46875 0l-0.03125 -0.9375l-0.046875 0q-0.28125 0.46875 -0.75 0.765625q-0.46875 0.296875 -1.140625 0.296875q-0.515625 0 -0.875 -0.109375q-0.359375 -0.109375 -0.59375 -0.390625q-0.21875 -0.296875 -0.328125 -0.765625q-0.109375 -0.484375 -0.109375 -1.203125l0 -2.421875l-0.734375 0l0 -0.734375l1.59375 0l0 2.984375q0 0.453125 0.03125 0.8125q0.046875 0.34375 0.15625 0.59375q0.125 0.25 0.359375 0.375q0.234375 0.125 0.640625 0.125q0.5625 0 0.984375 -0.375q0.4375 -0.375 0.65625 -0.921875l0 -2.859375l-0.703125 0l0 -0.734375zm3.5813293 0.421875q0.46875 -0.265625 1.0625 -0.390625q0.59375 -0.125 1.171875 -0.125q0.5625 0 0.921875 0.1875q0.359375 0.171875 0.5625 0.453125q0.203125 0.28125 0.265625 0.640625q0.078125 0.359375 0.078125 0.71875q0 0.421875 -0.03125 0.890625q-0.015625 0.46875 -0.03125 0.9375q0 0.5625 0.078125 1.046875l0.734375 0l0 0.71875l-1.46875 0l-0.09375 -0.828125l-0.0625 0q-0.0625 0.109375 -0.203125 0.265625q-0.125 0.140625 -0.34375 0.296875q-0.203125 0.140625 -0.515625 0.25q-0.3125 0.109375 -0.734375 0.109375q-0.8125 0 -1.28125 -0.40625q-0.46875 -0.421875 -0.46875 -1.15625q0 -0.5625 0.234375 -0.921875q0.25 -0.375 0.71875 -0.578125q0.46875 -0.203125 1.109375 -0.234375q0.65625 -0.03125 1.46875 0.09375q0.0625 -0.515625 0.015625 -0.84375q-0.03125 -0.34375 -0.171875 -0.53125q-0.140625 -0.203125 -0.390625 -0.28125q-0.234375 -0.078125 -0.59375 -0.078125q-0.5 0 -0.953125 0.140625q-0.453125 0.125 -0.796875 0.265625l-0.28125 -0.640625zm1.625 4.4375q0.296875 0 0.5625 -0.09375q0.265625 -0.109375 0.453125 -0.25q0.203125 -0.15625 0.328125 -0.328125q0.140625 -0.1875 0.203125 -0.359375l0 -0.765625q-0.5625 -0.109375 -1.046875 -0.109375q-0.484375 0 -0.84375 0.109375q-0.34375 0.109375 -0.546875 0.328125q-0.1875 0.21875 -0.1875 0.5625q0 0.375 0.234375 0.640625q0.25 0.265625 0.84375 0.265625zm4.768799 -4.4375q0.46875 -0.265625 1.0625 -0.390625q0.59375 -0.125 1.171875 -0.125q0.5625 0 0.921875 0.1875q0.359375 0.171875 0.5625 0.453125q0.203125 0.28125 0.265625 0.640625q0.078125 0.359375 0.078125 0.71875q0 0.421875 -0.03125 0.890625q-0.015625 0.46875 -0.03125 0.9375q0 0.5625 0.078125 1.046875l0.734375 0l0 0.71875l-1.46875 0l-0.09375 -0.828125l-0.0625 0q-0.0625 0.109375 -0.203125 0.265625q-0.125 0.140625 -0.34375 0.296875q-0.203125 0.140625 -0.515625 0.25q-0.3125 0.109375 -0.734375 0.109375q-0.8125 0 -1.28125 -0.40625q-0.46875 -0.421875 -0.46875 -1.15625q0 -0.5625 0.234375 -0.921875q0.25 -0.375 0.71875 -0.578125q0.46875 -0.203125 1.109375 -0.234375q0.65625 -0.03125 1.46875 0.09375q0.0625 -0.515625 0.015625 -0.84375q-0.03125 -0.34375 -0.171875 -0.53125q-0.140625 -0.203125 -0.390625 -0.28125q-0.234375 -0.078125 -0.59375 -0.078125q-0.5 0 -0.953125 0.140625q-0.453125 0.125 -0.796875 0.265625l-0.28125 -0.640625zm1.625 4.4375q0.296875 0 0.5625 -0.09375q0.265625 -0.109375 0.453125 -0.25q0.203125 -0.15625 0.328125 -0.328125q0.140625 -0.1875 0.203125 -0.359375l0 -0.765625q-0.5625 -0.109375 -1.046875 -0.109375q-0.484375 0 -0.84375 0.109375q-0.34375 0.109375 -0.546875 0.328125q-0.1875 0.21875 -0.1875 0.5625q0 0.375 0.234375 0.640625q0.25 0.265625 0.84375 0.265625z" fill-rule="nonzero"></path><path fill="#d5a6bd" d="m318.0525 311.7953l0 0c0 -17.020813 15.180023 -30.818909 33.905518 -30.818909l0 0c18.725494 0 33.905518 13.798096 33.905518 30.818909l0 0c0 17.020782 -15.180023 30.818878 -33.905518 30.818878l0 0c-18.725494 0 -33.905518 -13.798096 -33.905518 -30.818878z" fill-rule="evenodd"></path><path stroke="#000000" stroke-width="1.0" stroke-linejoin="round" stroke-linecap="butt" d="m318.0525 311.7953l0 0c0 -17.020813 15.180023 -30.818909 33.905518 -30.818909l0 0c18.725494 0 33.905518 13.798096 33.905518 30.818909l0 0c0 17.020782 -15.180023 30.818878 -33.905518 30.818878l0 0c-18.725494 0 -33.905518 -13.798096 -33.905518 -30.818878z" fill-rule="evenodd"></path><path fill="#ffffff" d="m351.3298 315.81653q0 0.515625 -0.203125 0.90625q-0.1875 0.390625 -0.546875 0.640625q-0.34375 0.25 -0.8125 0.375q-0.453125 0.125 -0.984375 0.125q-0.65625 0 -1.140625 -0.140625q-0.484375 -0.125 -0.828125 -0.328125l0.40625 -0.78125q0.109375 0.09375 0.265625 0.171875q0.15625 0.078125 0.359375 0.140625q0.21875 0.078125 0.453125 0.125q0.234375 0.046875 0.46875 0.046875q0.484375 0 0.796875 -0.09375q0.328125 -0.078125 0.53125 -0.265625q0.203125 -0.1875 0.28125 -0.484375q0.09375 -0.296875 0.09375 -0.734375l0 -0.609375l-0.046875 0q-0.25 0.359375 -0.65625 0.5625q-0.390625 0.1875 -1.015625 0.1875q-1.25 0 -1.84375 -0.6875q-0.578125 -0.703125 -0.578125 -2.171875q0 -1.40625 0.734375 -2.125q0.75 -0.734375 2.234375 -0.734375q0.671875 0 1.15625 0.09375q0.484375 0.09375 0.875 0.234375l0 5.546875zm-2.453125 -0.890625q0.671875 0 1.046875 -0.34375q0.390625 -0.34375 0.546875 -1.0625l0 -2.609375q-0.484375 -0.21875 -1.359375 -0.21875q-0.875 0 -1.390625 0.515625q-0.5 0.515625 -0.5 1.578125q0 0.46875 0.09375 0.859375q0.09375 0.390625 0.28125 0.6875q0.1875 0.28125 0.5 0.4375q0.3125 0.15625 0.78125 0.15625zm3.7063293 -2.140625q0 -1.328125 0.6875 -2.09375q0.703125 -0.78125 1.984375 -0.78125q0.703125 0 1.203125 0.21875q0.5 0.21875 0.828125 0.609375q0.328125 0.390625 0.484375 0.921875q0.15625 0.515625 0.15625 1.125q0 0.65625 -0.171875 1.203125q-0.171875 0.53125 -0.515625 0.90625q-0.34375 0.359375 -0.84375 0.5625q-0.5 0.203125 -1.140625 0.203125q-0.671875 0 -1.1875 -0.21875q-0.5 -0.21875 -0.828125 -0.609375q-0.328125 -0.390625 -0.5 -0.90625q-0.15625 -0.53125 -0.15625 -1.140625zm0.921875 0q0 0.390625 0.09375 0.78125q0.09375 0.375 0.296875 0.6875q0.203125 0.296875 0.53125 0.484375q0.34375 0.1875 0.828125 0.1875q0.890625 0 1.328125 -0.53125q0.453125 -0.546875 0.453125 -1.609375q0 -0.390625 -0.09375 -0.765625q-0.09375 -0.390625 -0.3125 -0.6875q-0.21875 -0.3125 -0.5625 -0.5q-0.328125 -0.1875 -0.8125 -0.1875q-0.875 0 -1.3125 0.546875q-0.4375 0.53125 -0.4375 1.59375z" fill-rule="nonzero"></path><path fill="#bf9000" d="m242.87138 52.958004l0 0c0 -17.020805 15.180008 -30.818897 33.905533 -30.818897l0 0c18.725494 0 33.905487 13.798092 33.905487 30.818897l0 0c0 17.02081 -15.179993 30.818897 -33.905487 30.818897l0 0c-18.725525 0 -33.905533 -13.798088 -33.905533 -30.818897z" fill-rule="evenodd"></path><path stroke="#000000" stroke-width="1.0" stroke-linejoin="round" stroke-linecap="butt" d="m242.87138 52.958004l0 0c0 -17.020805 15.180008 -30.818897 33.905533 -30.818897l0 0c18.725494 0 33.905487 13.798092 33.905487 30.818897l0 0c0 17.02081 -15.179993 30.818897 -33.905487 30.818897l0 0c-18.725525 0 -33.905533 -13.798088 -33.905533 -30.818897z" fill-rule="evenodd"></path><path fill="#ffffff" d="m267.6924 51.93238l-2.671875 0l0 -0.734375l3.546875 0l0 5.625q0 1.125 -0.578125 1.65625q-0.5625 0.546875 -1.5625 0.546875q-0.296875 0 -0.578125 -0.078125q-0.28125 -0.078125 -0.53125 -0.1875q-0.234375 -0.09375 -0.421875 -0.203125q-0.171875 -0.109375 -0.25 -0.171875l0.359375 -0.71875q0.296875 0.21875 0.671875 0.375q0.375 0.171875 0.78125 0.171875q0.671875 0 0.953125 -0.421875q0.28125 -0.40625 0.28125 -1.125l0 -4.734375zm-0.46875 -2.296875q0 -0.296875 0.1875 -0.5q0.203125 -0.21875 0.515625 -0.21875q0.3125 0 0.53125 0.21875q0.21875 0.203125 0.21875 0.5q0 0.28125 -0.21875 0.484375q-0.21875 0.203125 -0.53125 0.203125q-0.3125 0 -0.515625 -0.203125q-0.1875 -0.203125 -0.1875 -0.484375zm4.346924 1.984375q0.46875 -0.265625 1.0625 -0.390625q0.59375 -0.125 1.171875 -0.125q0.5625 0 0.921875 0.1875q0.359375 0.171875 0.5625 0.453125q0.203125 0.28125 0.265625 0.640625q0.078125 0.359375 0.078125 0.71875q0 0.421875 -0.03125 0.890625q-0.015625 0.46875 -0.03125 0.9375q0 0.5625 0.078125 1.046875l0.734375 0l0 0.71875l-1.46875 0l-0.09375 -0.828125l-0.0625 0q-0.0625 0.109375 -0.203125 0.265625q-0.125 0.140625 -0.34375 0.296875q-0.203125 0.140625 -0.515625 0.25q-0.3125 0.109375 -0.734375 0.109375q-0.8125 0 -1.28125 -0.40625q-0.46875 -0.421875 -0.46875 -1.15625q0 -0.5625 0.234375 -0.921875q0.25 -0.375 0.71875 -0.578125q0.46875 -0.203125 1.109375 -0.234375q0.65625 -0.03125 1.46875 0.09375q0.0625 -0.515625 0.015625 -0.84375q-0.03125 -0.34375 -0.171875 -0.53125q-0.140625 -0.203125 -0.390625 -0.28125q-0.234375 -0.078125 -0.59375 -0.078125q-0.5 0 -0.953125 0.140625q-0.453125 0.125 -0.796875 0.265625l-0.28125 -0.640625zm1.625 4.4375q0.296875 0 0.5625 -0.09375q0.265625 -0.109375 0.453125 -0.25q0.203125 -0.15625 0.328125 -0.328125q0.140625 -0.1875 0.203125 -0.359375l0 -0.765625q-0.5625 -0.109375 -1.046875 -0.109375q-0.484375 0 -0.84375 0.109375q-0.34375 0.109375 -0.546875 0.328125q-0.1875 0.21875 -0.1875 0.5625q0 0.375 0.234375 0.640625q0.25 0.265625 0.84375 0.265625zm6.9094543 -0.421875l0.109375 0l1.734375 -4.4375l0.953125 0l-2.3125 5.5l-0.96875 0l-2.375 -5.5l1.015625 0l1.84375 4.4375zm4.253174 -4.015625q0.46875 -0.265625 1.0625 -0.390625q0.59375 -0.125 1.171875 -0.125q0.5625 0 0.921875 0.1875q0.359375 0.171875 0.5625 0.453125q0.203125 0.28125 0.265625 0.640625q0.078125 0.359375 0.078125 0.71875q0 0.421875 -0.03125 0.890625q-0.015625 0.46875 -0.03125 0.9375q0 0.5625 0.078125 1.046875l0.734375 0l0 0.71875l-1.46875 0l-0.09375 -0.828125l-0.0625 0q-0.0625 0.109375 -0.203125 0.265625q-0.125 0.140625 -0.34375 0.296875q-0.203125 0.140625 -0.515625 0.25q-0.3125 0.109375 -0.734375 0.109375q-0.8125 0 -1.28125 -0.40625q-0.46875 -0.421875 -0.46875 -1.15625q0 -0.5625 0.234375 -0.921875q0.25 -0.375 0.71875 -0.578125q0.46875 -0.203125 1.109375 -0.234375q0.65625 -0.03125 1.46875 0.09375q0.0625 -0.515625 0.015625 -0.84375q-0.03125 -0.34375 -0.171875 -0.53125q-0.140625 -0.203125 -0.390625 -0.28125q-0.234375 -0.078125 -0.59375 -0.078125q-0.5 0 -0.953125 0.140625q-0.453125 0.125 -0.796875 0.265625l-0.28125 -0.640625zm1.625 4.4375q0.296875 0 0.5625 -0.09375q0.265625 -0.109375 0.453125 -0.25q0.203125 -0.15625 0.328125 -0.328125q0.140625 -0.1875 0.203125 -0.359375l0 -0.765625q-0.5625 -0.109375 -1.046875 -0.109375q-0.484375 0 -0.84375 0.109375q-0.34375 0.109375 -0.546875 0.328125q-0.1875 0.21875 -0.1875 0.5625q0 0.375 0.234375 0.640625q0.25 0.265625 0.84375 0.265625z" fill-rule="nonzero"></path><path fill="#c27ba0" d="m435.14697 208.29921l0 0c0 -17.020798 15.180023 -30.818893 33.905518 -30.818893l0 0c18.725494 0 33.905518 13.798096 33.905518 30.818893l0 0c0 17.020813 -15.180023 30.818893 -33.905518 30.818893l0 0c-18.725494 0 -33.905518 -13.79808 -33.905518 -30.818893z" fill-rule="evenodd"></path><path stroke="#000000" stroke-width="1.0" stroke-linejoin="round" stroke-linecap="butt" d="m435.14697 208.29921l0 0c0 -17.020798 15.180023 -30.818893 33.905518 -30.818893l0 0c18.725494 0 33.905518 13.798096 33.905518 30.818893l0 0c0 17.020813 -15.180023 30.818893 -33.905518 30.818893l0 0c-18.725494 0 -33.905518 -13.79808 -33.905518 -30.818893z" fill-rule="evenodd"></path><path fill="#ffffff" d="m464.27426 210.55484q0 -0.359375 -0.28125 -0.546875q-0.265625 -0.1875 -0.671875 -0.296875q-0.40625 -0.125 -0.890625 -0.21875q-0.46875 -0.109375 -0.875 -0.265625q-0.40625 -0.171875 -0.6875 -0.453125q-0.265625 -0.28125 -0.265625 -0.78125q0 -0.421875 0.171875 -0.71875q0.1875 -0.296875 0.484375 -0.484375q0.296875 -0.1875 0.6875 -0.28125q0.390625 -0.09375 0.828125 -0.09375q0.765625 0 1.3125 0.1875q0.5625 0.1875 0.890625 0.40625l-0.34375 0.6875q-0.359375 -0.203125 -0.796875 -0.375q-0.421875 -0.1875 -1.046875 -0.1875q-0.25 0 -0.484375 0.046875q-0.234375 0.046875 -0.4375 0.15625q-0.1875 0.09375 -0.3125 0.25q-0.109375 0.15625 -0.109375 0.390625q0 0.296875 0.28125 0.453125q0.28125 0.140625 0.6875 0.25q0.40625 0.109375 0.875 0.203125q0.484375 0.09375 0.890625 0.265625q0.40625 0.171875 0.671875 0.46875q0.28125 0.296875 0.28125 0.8125q0 0.75 -0.59375 1.25q-0.59375 0.484375 -1.796875 0.484375q-0.359375 0 -0.71875 -0.0625q-0.34375 -0.0625 -0.65625 -0.171875q-0.3125 -0.109375 -0.5625 -0.25q-0.25 -0.140625 -0.421875 -0.28125l0.4375 -0.71875q0.140625 0.140625 0.359375 0.28125q0.21875 0.125 0.484375 0.25q0.265625 0.109375 0.5625 0.171875q0.296875 0.0625 0.609375 0.0625q0.296875 0 0.546875 -0.046875q0.265625 -0.046875 0.46875 -0.15625q0.203125 -0.109375 0.3125 -0.28125q0.109375 -0.171875 0.109375 -0.40625zm6.4094543 -3.171875q-0.25 -0.078125 -0.546875 -0.140625q-0.28125 -0.0625 -0.578125 -0.0625q-1.078125 0 -1.609375 0.515625q-0.515625 0.5 -0.515625 1.59375q0 0.484375 0.140625 0.875q0.15625 0.375 0.4375 0.640625q0.296875 0.25 0.6875 0.40625q0.40625 0.140625 0.890625 0.140625q0.515625 0 1.0 -0.171875q0.5 -0.1875 0.828125 -0.46875l0.390625 0.640625q-0.15625 0.125 -0.390625 0.265625q-0.234375 0.140625 -0.53125 0.28125q-0.296875 0.125 -0.671875 0.1875q-0.359375 0.078125 -0.796875 0.078125q-0.71875 0 -1.265625 -0.203125q-0.53125 -0.203125 -0.90625 -0.578125q-0.359375 -0.375 -0.546875 -0.90625q-0.1875 -0.53125 -0.1875 -1.1875q0 -0.6875 0.1875 -1.21875q0.203125 -0.546875 0.5625 -0.90625q0.359375 -0.375 0.875 -0.5625q0.53125 -0.1875 1.15625 -0.1875q0.8125 0 1.328125 0.140625q0.515625 0.140625 0.859375 0.3125l0 0.03125l0 1.53125l-0.796875 0l0 -1.046875zm6.378174 3.171875q0 -0.359375 -0.28125 -0.546875q-0.265625 -0.1875 -0.671875 -0.296875q-0.40625 -0.125 -0.890625 -0.21875q-0.46875 -0.109375 -0.875 -0.265625q-0.40625 -0.171875 -0.6875 -0.453125q-0.265625 -0.28125 -0.265625 -0.78125q0 -0.421875 0.171875 -0.71875q0.1875 -0.296875 0.484375 -0.484375q0.296875 -0.1875 0.6875 -0.28125q0.390625 -0.09375 0.828125 -0.09375q0.765625 0 1.3125 0.1875q0.5625 0.1875 0.890625 0.40625l-0.34375 0.6875q-0.359375 -0.203125 -0.796875 -0.375q-0.421875 -0.1875 -1.046875 -0.1875q-0.25 0 -0.484375 0.046875q-0.234375 0.046875 -0.4375 0.15625q-0.1875 0.09375 -0.3125 0.25q-0.109375 0.15625 -0.109375 0.390625q0 0.296875 0.28125 0.453125q0.28125 0.140625 0.6875 0.25q0.40625 0.109375 0.875 0.203125q0.484375 0.09375 0.890625 0.265625q0.40625 0.171875 0.671875 0.46875q0.28125 0.296875 0.28125 0.8125q0 0.75 -0.59375 1.25q-0.59375 0.484375 -1.796875 0.484375q-0.359375 0 -0.71875 -0.0625q-0.34375 -0.0625 -0.65625 -0.171875q-0.3125 -0.109375 -0.5625 -0.25q-0.25 -0.140625 -0.421875 -0.28125l0.4375 -0.71875q0.140625 0.140625 0.359375 0.28125q0.21875 0.125 0.484375 0.25q0.265625 0.109375 0.5625 0.171875q0.296875 0.0625 0.609375 0.0625q0.296875 0 0.546875 -0.046875q0.265625 -0.046875 0.46875 -0.15625q0.203125 -0.109375 0.3125 -0.28125q0.109375 -0.171875 0.109375 -0.40625z" fill-rule="nonzero"></path><path fill="#741b47" d="m424.1076 302.00262l0 0c0 -17.020813 17.647736 -30.818909 39.417328 -30.818909l0 0c21.769592 0 39.417328 13.798096 39.417328 30.818909l0 0c0 17.020813 -17.647736 30.818909 -39.417328 30.818909l0 0c-21.769592 0 -39.417328 -13.798096 -39.417328 -30.818909z" fill-rule="evenodd"></path><path stroke="#000000" stroke-width="1.0" stroke-linejoin="round" stroke-linecap="butt" d="m424.1076 302.00262l0 0c0 -17.020813 17.647736 -30.818909 39.417328 -30.818909l0 0c21.769592 0 39.417328 13.798096 39.417328 30.818909l0 0c0 17.020813 -17.647736 30.818909 -39.417328 30.818909l0 0c-21.769592 0 -39.417328 -13.798096 -39.417328 -30.818909z" fill-rule="evenodd"></path><path fill="#ffffff" d="m448.25916 305.7426l0 -0.734375l1.5 0l0 -4.03125l-1.5 0l0 -0.734375l2.0625 0l0.171875 0.71875l0.0625 0q0.375 -0.34375 0.828125 -0.578125q0.46875 -0.25 1.109375 -0.25q0.375 0 0.59375 0.140625q0.234375 0.140625 0.359375 0.421875q0.125 0.265625 0.15625 0.65625q0.046875 0.390625 0.046875 0.890625l-0.765625 0.015625q0 -0.703125 -0.140625 -1.03125q-0.125 -0.328125 -0.5 -0.328125q-0.34375 0 -0.625 0.09375q-0.265625 0.09375 -0.46875 0.25q-0.203125 0.140625 -0.34375 0.28125q-0.140625 0.140625 -0.203125 0.234375l0 3.25l2.109375 0l0 0.734375l-4.453125 0zm11.487549 -0.6875q-0.1875 0.171875 -0.46875 0.328125q-0.265625 0.15625 -0.59375 0.265625q-0.3125 0.109375 -0.65625 0.15625q-0.34375 0.0625 -0.6875 0.0625q-0.671875 0 -1.171875 -0.203125q-0.5 -0.203125 -0.84375 -0.578125q-0.34375 -0.375 -0.53125 -0.90625q-0.171875 -0.53125 -0.171875 -1.1875q0 -0.6875 0.1875 -1.21875q0.203125 -0.546875 0.5625 -0.90625q0.359375 -0.375 0.875 -0.5625q0.53125 -0.1875 1.15625 -0.1875q0.46875 0 0.921875 0.125q0.453125 0.109375 0.796875 0.453125q0.34375 0.328125 0.53125 0.921875q0.1875 0.578125 0.140625 1.515625l-4.265625 0q0 1.0 0.53125 1.484375q0.53125 0.484375 1.421875 0.484375q0.296875 0 0.59375 -0.0625q0.296875 -0.078125 0.5625 -0.171875q0.265625 -0.109375 0.46875 -0.21875q0.203125 -0.125 0.3125 -0.21875l0.328125 0.625zm-2.3125 -4.21875q-0.359375 0 -0.6875 0.078125q-0.328125 0.078125 -0.578125 0.265625q-0.25 0.171875 -0.40625 0.46875q-0.15625 0.28125 -0.203125 0.71875l3.421875 0q-0.046875 -0.734375 -0.46875 -1.125q-0.40625 -0.40625 -1.078125 -0.40625zm6.7375793 -2.796875l1.78125 0l0 5.828125q0 0.09375 0 0.25q0.015625 0.140625 0.03125 0.3125q0.015625 0.15625 0.03125 0.3125q0.03125 0.15625 0.046875 0.28125l0.75 0l0 0.71875l-1.46875 0l-0.109375 -0.84375l-0.046875 0q-0.234375 0.421875 -0.71875 0.703125q-0.484375 0.265625 -1.109375 0.265625q-1.234375 0 -1.828125 -0.6875q-0.59375 -0.703125 -0.59375 -2.171875q0 -0.703125 0.203125 -1.234375q0.203125 -0.53125 0.5625 -0.890625q0.375 -0.359375 0.890625 -0.546875q0.515625 -0.1875 1.15625 -0.1875q0.234375 0 0.40625 0.015625q0.1875 0.015625 0.34375 0.046875q0.15625 0.015625 0.28125 0.0625q0.140625 0.03125 0.3125 0.0625l0 -1.5625l-0.921875 0l0 -0.734375zm-0.671875 7.09375q0.671875 0 1.0625 -0.34375q0.390625 -0.34375 0.53125 -1.03125l0 -2.5625q-0.25 -0.15625 -0.546875 -0.234375q-0.296875 -0.078125 -0.796875 -0.078125q-0.875 0 -1.390625 0.515625q-0.5 0.5 -0.5 1.609375q0 0.453125 0.078125 0.84375q0.078125 0.390625 0.265625 0.671875q0.203125 0.28125 0.515625 0.453125q0.328125 0.15625 0.78125 0.15625zm4.378174 0.609375l0 -0.734375l1.90625 0l0 -4.03125l-1.90625 0l0 -0.734375l2.796875 0l0 4.765625l1.859375 0l0 0.734375l-4.65625 0zm1.609375 -7.0625q0 -0.296875 0.203125 -0.5q0.203125 -0.21875 0.5 -0.21875q0.328125 0 0.53125 0.21875q0.21875 0.203125 0.21875 0.5q0 0.28125 -0.21875 0.484375q-0.203125 0.203125 -0.53125 0.203125q-0.296875 0 -0.5 -0.203125q-0.203125 -0.203125 -0.203125 -0.484375zm8.440704 5.578125q0 -0.359375 -0.28125 -0.546875q-0.265625 -0.1875 -0.671875 -0.296875q-0.40625 -0.125 -0.890625 -0.21875q-0.46875 -0.109375 -0.875 -0.265625q-0.40625 -0.171875 -0.6875 -0.453125q-0.265625 -0.28125 -0.265625 -0.78125q0 -0.421875 0.171875 -0.71875q0.1875 -0.296875 0.484375 -0.484375q0.296875 -0.1875 0.6875 -0.28125q0.390625 -0.09375 0.828125 -0.09375q0.765625 0 1.3125 0.1875q0.5625 0.1875 0.890625 0.40625l-0.34375 0.6875q-0.359375 -0.203125 -0.796875 -0.375q-0.421875 -0.1875 -1.046875 -0.1875q-0.25 0 -0.484375 0.046875q-0.234375 0.046875 -0.4375 0.15625q-0.1875 0.09375 -0.3125 0.25q-0.109375 0.15625 -0.109375 0.390625q0 0.296875 0.28125 0.453125q0.28125 0.140625 0.6875 0.25q0.40625 0.109375 0.875 0.203125q0.484375 0.09375 0.890625 0.265625q0.40625 0.171875 0.671875 0.46875q0.28125 0.296875 0.28125 0.8125q0 0.75 -0.59375 1.25q-0.59375 0.484375 -1.796875 0.484375q-0.359375 0 -0.71875 -0.0625q-0.34375 -0.0625 -0.65625 -0.171875q-0.3125 -0.109375 -0.5625 -0.25q-0.25 -0.140625 -0.421875 -0.28125l0.4375 -0.71875q0.140625 0.140625 0.359375 0.28125q0.21875 0.125 0.484375 0.25q0.265625 0.109375 0.5625 0.171875q0.296875 0.0625 0.609375 0.0625q0.296875 0 0.546875 -0.046875q0.265625 -0.046875 0.46875 -0.15625q0.203125 -0.109375 0.3125 -0.28125q0.109375 -0.171875 0.109375 -0.40625z" fill-rule="nonzero"></path><path fill="#e06666" d="m356.2966 382.03937l0 0c0 -17.020813 23.732422 -30.818909 53.007874 -30.818909l0 0c29.275421 0 53.007874 13.798096 53.007874 30.818909l0 0c0 17.020813 -23.732452 30.818909 -53.007874 30.818909l0 0c-29.275452 0 -53.007874 -13.798096 -53.007874 -30.818909z" fill-rule="evenodd"></path><path stroke="#000000" stroke-width="1.0" stroke-linejoin="round" stroke-linecap="butt" d="m356.2966 382.03937l0 0c0 -17.020813 23.732422 -30.818909 53.007874 -30.818909l0 0c29.275421 0 53.007874 13.798096 53.007874 30.818909l0 0c0 17.020813 -23.732452 30.818909 -53.007874 30.818909l0 0c-29.275452 0 -53.007874 -13.798096 -53.007874 -30.818909z" fill-rule="evenodd"></path><path fill="#ffffff" d="m384.44797 385.77936l0 -0.734375l1.5 0l0 -4.03125l-1.5 0l0 -0.734375l2.0625 0l0.171875 0.71875l0.0625 0q0.375 -0.34375 0.828125 -0.578125q0.46875 -0.25 1.109375 -0.25q0.375 0 0.59375 0.140625q0.234375 0.140625 0.359375 0.421875q0.125 0.265625 0.15625 0.65625q0.046875 0.390625 0.046875 0.890625l-0.765625 0.015625q0 -0.703125 -0.140625 -1.03125q-0.125 -0.328125 -0.5 -0.328125q-0.34375 0 -0.625 0.09375q-0.265625 0.09375 -0.46875 0.25q-0.203125 0.140625 -0.34375 0.28125q-0.140625 0.140625 -0.203125 0.234375l0 3.25l2.109375 0l0 0.734375l-4.453125 0zm6.862549 -5.078125q0.46875 -0.265625 1.0625 -0.390625q0.59375 -0.125 1.171875 -0.125q0.5625 0 0.921875 0.1875q0.359375 0.171875 0.5625 0.453125q0.203125 0.28125 0.265625 0.640625q0.078125 0.359375 0.078125 0.71875q0 0.421875 -0.03125 0.890625q-0.015625 0.46875 -0.03125 0.9375q0 0.5625 0.078125 1.046875l0.734375 0l0 0.71875l-1.46875 0l-0.09375 -0.828125l-0.0625 0q-0.0625 0.109375 -0.203125 0.265625q-0.125 0.140625 -0.34375 0.296875q-0.203125 0.140625 -0.515625 0.25q-0.3125 0.109375 -0.734375 0.109375q-0.8125 0 -1.28125 -0.40625q-0.46875 -0.421875 -0.46875 -1.15625q0 -0.5625 0.234375 -0.921875q0.25 -0.375 0.71875 -0.578125q0.46875 -0.203125 1.109375 -0.234375q0.65625 -0.03125 1.46875 0.09375q0.0625 -0.515625 0.015625 -0.84375q-0.03125 -0.34375 -0.171875 -0.53125q-0.140625 -0.203125 -0.390625 -0.28125q-0.234375 -0.078125 -0.59375 -0.078125q-0.5 0 -0.953125 0.140625q-0.453125 0.125 -0.796875 0.265625l-0.28125 -0.640625zm1.625 4.4375q0.296875 0 0.5625 -0.09375q0.265625 -0.109375 0.453125 -0.25q0.203125 -0.15625 0.328125 -0.328125q0.140625 -0.1875 0.203125 -0.359375l0 -0.765625q-0.5625 -0.109375 -1.046875 -0.109375q-0.484375 0 -0.84375 0.109375q-0.34375 0.109375 -0.546875 0.328125q-0.1875 0.21875 -0.1875 0.5625q0 0.375 0.234375 0.640625q0.25 0.265625 0.84375 0.265625zm3.5969543 -7.0625l1.765625 0l0 2.828125l0.0625 0q0.28125 -0.359375 0.734375 -0.546875q0.453125 -0.203125 0.96875 -0.203125q2.421875 0 2.421875 2.78125q0 1.421875 -0.78125 2.1875q-0.78125 0.75 -2.21875 0.75q-0.6875 0 -1.234375 -0.125q-0.546875 -0.140625 -0.796875 -0.328125l0 -6.609375l-0.921875 0l0 -0.734375zm3.421875 2.8125q-0.65625 0 -1.0625 0.375q-0.40625 0.375 -0.59375 1.046875l0 2.53125q0.25 0.140625 0.59375 0.21875q0.359375 0.0625 0.75 0.0625q0.4375 0 0.796875 -0.125q0.359375 -0.125 0.609375 -0.390625q0.25 -0.265625 0.390625 -0.6875q0.140625 -0.421875 0.140625 -0.984375q0 -0.421875 -0.09375 -0.796875q-0.078125 -0.375 -0.28125 -0.65625q-0.1875 -0.28125 -0.5 -0.4375q-0.296875 -0.15625 -0.75 -0.15625zm2.9719238 -2.8125l1.765625 0l0 2.828125l0.0625 0q0.28125 -0.359375 0.734375 -0.546875q0.453125 -0.203125 0.96875 -0.203125q2.421875 0 2.421875 2.78125q0 1.421875 -0.78125 2.1875q-0.78125 0.75 -2.21875 0.75q-0.6875 0 -1.234375 -0.125q-0.546875 -0.140625 -0.796875 -0.328125l0 -6.609375l-0.921875 0l0 -0.734375zm3.421875 2.8125q-0.65625 0 -1.0625 0.375q-0.40625 0.375 -0.59375 1.046875l0 2.53125q0.25 0.140625 0.59375 0.21875q0.359375 0.0625 0.75 0.0625q0.4375 0 0.796875 -0.125q0.359375 -0.125 0.609375 -0.390625q0.25 -0.265625 0.390625 -0.6875q0.140625 -0.421875 0.140625 -0.984375q0 -0.421875 -0.09375 -0.796875q-0.078125 -0.375 -0.28125 -0.65625q-0.1875 -0.28125 -0.5 -0.4375q-0.296875 -0.15625 -0.75 -0.15625zm4.1125793 4.890625l0 -0.734375l1.90625 0l0 -4.03125l-1.90625 0l0 -0.734375l2.796875 0l0 4.765625l1.859375 0l0 0.734375l-4.65625 0zm1.609375 -7.0625q0 -0.296875 0.203125 -0.5q0.203125 -0.21875 0.5 -0.21875q0.328125 0 0.53125 0.21875q0.21875 0.203125 0.21875 0.5q0 0.28125 -0.21875 0.484375q-0.203125 0.203125 -0.53125 0.203125q-0.296875 0 -0.5 -0.203125q-0.203125 -0.203125 -0.203125 -0.484375zm3.9719238 1.5625l1.3125 0l0 -1.09375l0.859375 -0.234375l0 1.328125l2.921875 0l0 0.734375l-2.921875 0l0 2.59375q0 0.8125 0.375 1.203125q0.390625 0.375 1.125 0.375q0.5 0 0.859375 -0.1875q0.375 -0.1875 0.671875 -0.40625l0.28125 0.65625q-0.390625 0.296875 -0.921875 0.484375q-0.53125 0.1875 -1.09375 0.1875q-0.4375 0 -0.828125 -0.125q-0.390625 -0.125 -0.6875 -0.390625q-0.296875 -0.265625 -0.46875 -0.671875q-0.171875 -0.421875 -0.171875 -0.984375l0 -2.734375l-1.3125 0l0 -0.734375zm8.925079 5.5l0 -3.65625q0 -0.234375 -0.015625 -0.453125q-0.015625 -0.21875 -0.078125 -0.375q-0.046875 -0.171875 -0.171875 -0.265625q-0.109375 -0.109375 -0.296875 -0.109375q-0.375 0 -0.640625 0.3125q-0.25 0.296875 -0.390625 0.765625l0 3.78125l-0.828125 0l0 -5.5l0.5625 0l0.171875 0.671875l0.046875 0q0.109375 -0.171875 0.203125 -0.3125q0.109375 -0.15625 0.25 -0.265625q0.140625 -0.109375 0.328125 -0.15625q0.1875 -0.0625 0.46875 -0.0625q0.171875 0 0.34375 0.046875q0.171875 0.046875 0.3125 0.15625q0.15625 0.09375 0.265625 0.28125q0.109375 0.171875 0.140625 0.421875q0.265625 -0.421875 0.578125 -0.65625q0.3125 -0.25 0.859375 -0.25q0.359375 0 0.578125 0.125q0.234375 0.109375 0.359375 0.34375q0.125 0.21875 0.171875 0.53125q0.0625 0.3125 0.0625 0.703125l0 3.921875l-0.84375 0l0 -3.734375q0 -0.234375 -0.03125 -0.4375q-0.015625 -0.203125 -0.078125 -0.359375q-0.0625 -0.15625 -0.171875 -0.234375q-0.09375 -0.09375 -0.265625 -0.09375q-0.390625 0 -0.65625 0.3125q-0.265625 0.296875 -0.390625 0.875l0 3.671875l-0.84375 0zm9.190674 2.203125l-0.859375 0l0 -2.8125l-0.046875 0q-0.25 0.359375 -0.65625 0.546875q-0.390625 0.1875 -1.015625 0.1875q-1.25 0 -1.84375 -0.6875q-0.59375 -0.703125 -0.59375 -2.171875q0 -1.40625 0.75 -2.125q0.75 -0.734375 2.21875 -0.734375q0.65625 0 1.21875 0.109375q0.5625 0.109375 0.828125 0.234375l0 7.453125zm-2.453125 -2.8125q1.3125 0 1.59375 -1.375l0 -2.640625q-0.25 -0.125 -0.59375 -0.171875q-0.328125 -0.046875 -0.75 -0.046875q-0.890625 0 -1.390625 0.5q-0.5 0.5 -0.5 1.59375q0 0.46875 0.078125 0.859375q0.078125 0.390625 0.28125 0.6875q0.203125 0.28125 0.515625 0.4375q0.3125 0.15625 0.765625 0.15625z" fill-rule="nonzero"></path><path fill="#ea9999" d="m345.27298 30.818897l0 0c0 -17.020805 17.647736 -30.818897 39.417297 -30.818897l0 0c21.769592 -4.7799793E-15 39.417328 13.798091 39.417328 30.818897l0 0c0 17.02081 -17.647736 30.818897 -39.417328 30.818897l0 0c-21.769562 0 -39.417297 -13.798088 -39.417297 -30.818897z" fill-rule="evenodd"></path><path stroke="#000000" stroke-width="1.0" stroke-linejoin="round" stroke-linecap="butt" d="m345.27298 30.818897l0 0c0 -17.020805 17.647736 -30.818897 39.417297 -30.818897l0 0c21.769592 -4.7799793E-15 39.417328 13.798091 39.417328 30.818897l0 0c0 17.02081 -17.647736 30.818897 -39.417328 30.818897l0 0c-21.769562 0 -39.417297 -13.798088 -39.417297 -30.818897z" fill-rule="evenodd"></path><path fill="#ffffff" d="m371.58075 34.5589l0 -3.656252q0 -0.234375 -0.015625 -0.453125q-0.015625 -0.21875 -0.078125 -0.375q-0.046875 -0.171875 -0.171875 -0.265625q-0.109375 -0.109375 -0.296875 -0.109375q-0.375 0 -0.640625 0.3125q-0.25 0.296875 -0.390625 0.765625l0 3.781252l-0.828125 0l0 -5.500002l0.5625 0l0.171875 0.671875l0.046875 0q0.109375 -0.171875 0.203125 -0.3125q0.109375 -0.15625 0.25 -0.265625q0.140625 -0.109375 0.328125 -0.15625q0.1875 -0.0625 0.46875 -0.0625q0.171875 0 0.34375 0.046875q0.171875 0.046875 0.3125 0.15625q0.15625 0.09375 0.265625 0.28125q0.109375 0.171875 0.140625 0.421875q0.265625 -0.421875 0.578125 -0.65625q0.3125 -0.25 0.859375 -0.25q0.359375 0 0.578125 0.125q0.234375 0.109375 0.359375 0.34375q0.125 0.21875 0.171875 0.53125q0.0625 0.3125 0.0625 0.703125l0 3.921877l-0.84375 0l0 -3.734377q0 -0.234375 -0.03125 -0.4375q-0.015625 -0.203125 -0.078125 -0.359375q-0.0625 -0.15625 -0.171875 -0.234375q-0.09375 -0.09375 -0.265625 -0.09375q-0.390625 0 -0.65625 0.3125q-0.265625 0.296875 -0.390625 0.875l0 3.671877l-0.84375 0zm6.9407043 -0.84375l0.421875 0l1.359375 -4.656252l0.890625 0l-1.53125 4.937502q-0.125 0.390625 -0.25 0.875q-0.125 0.484375 -0.359375 0.90625q-0.21875 0.4375 -0.625 0.734375q-0.390625 0.296875 -1.03125 0.296875q-0.140625 0 -0.296875 -0.03125q-0.15625 -0.03125 -0.3125 -0.078125q-0.15625 -0.046875 -0.296875 -0.125q-0.125 -0.0625 -0.1875 -0.125l0.296875 -0.796875q0.078125 0.0625 0.1875 0.109375q0.109375 0.0625 0.25 0.09375q0.140625 0.046875 0.265625 0.0625q0.140625 0.03125 0.234375 0.03125q0.8125 0 1.109375 -1.390625l-0.734375 0l-2.3125 -5.500002l1.0 0l1.921875 4.656252zm7.784424 -0.640625q0 -0.359375 -0.28125 -0.546875q-0.265625 -0.1875 -0.671875 -0.296875q-0.40625 -0.125 -0.890625 -0.21875q-0.46875 -0.10937691 -0.875 -0.2656269q-0.40625 -0.171875 -0.6875 -0.453125q-0.265625 -0.28125 -0.265625 -0.78125q0 -0.421875 0.171875 -0.71875q0.1875 -0.296875 0.484375 -0.484375q0.296875 -0.1875 0.6875 -0.28125q0.390625 -0.09375 0.828125 -0.09375q0.765625 0 1.3125 0.1875q0.5625 0.1875 0.890625 0.40625l-0.34375 0.6875q-0.359375 -0.203125 -0.796875 -0.375q-0.421875 -0.1875 -1.046875 -0.1875q-0.25 0 -0.484375 0.046875q-0.234375 0.046875 -0.4375 0.15625q-0.1875 0.09375 -0.3125 0.25q-0.109375 0.15625 -0.109375 0.390625q0 0.296875 0.28125 0.453125q0.28125 0.140625 0.6875 0.25q0.40625 0.109375 0.875 0.203125q0.484375 0.09375 0.890625 0.265625q0.40625 0.171875 0.671875 0.4687519q0.28125 0.296875 0.28125 0.8125q0 0.75 -0.59375 1.25q-0.59375 0.484375 -1.796875 0.484375q-0.359375 0 -0.71875 -0.0625q-0.34375 -0.0625 -0.65625 -0.171875q-0.3125 -0.109375 -0.5625 -0.25q-0.25 -0.140625 -0.421875 -0.28125l0.4375 -0.71875q0.140625 0.140625 0.359375 0.28125q0.21875 0.125 0.484375 0.25q0.265625 0.109375 0.5625 0.171875q0.296875 0.0625 0.609375 0.0625q0.296875 0 0.546875 -0.046875q0.265625 -0.046875 0.46875 -0.15625q0.203125 -0.109375 0.3125 -0.28125q0.109375 -0.171875 0.109375 -0.40625zm7.2532043 3.6875l-0.859375 0l0 -2.8125l-0.046875 0q-0.25 0.359375 -0.65625 0.546875q-0.390625 0.1875 -1.015625 0.1875q-1.25 0 -1.84375 -0.6875q-0.59375 -0.703125 -0.59375 -2.171877q0 -1.40625 0.75 -2.125q0.75 -0.734375 2.21875 -0.734375q0.65625 0 1.21875 0.109375q0.5625 0.109375 0.828125 0.234375l0 7.453127zm-2.453125 -2.8125q1.3125 0 1.59375 -1.375l0 -2.640627q-0.25 -0.125 -0.59375 -0.171875q-0.328125 -0.046875 -0.75 -0.046875q-0.890625 0 -1.390625 0.5q-0.5 0.5 -0.5 1.59375q0 0.4687519 0.078125 0.8593769q0.078125 0.390625 0.28125 0.6875q0.203125 0.28125 0.515625 0.4375q0.3125 0.15625 0.765625 0.15625zm3.9406738 -7.093752l1.828125 0l0 5.859377q0 0.671875 0.21875 0.953125q0.234375 0.265625 0.671875 0.265625q0.3125 0 0.625 -0.125q0.328125 -0.125 0.59375 -0.34375l0.390625 0.59375q-0.171875 0.140625 -0.390625 0.265625q-0.203125 0.125 -0.421875 0.21875q-0.21875 0.078125 -0.4375 0.109375q-0.21875 0.046875 -0.40625 0.046875q-0.40625 0 -0.734375 -0.109375q-0.3125 -0.09375 -0.53125 -0.328125q-0.21875 -0.234375 -0.328125 -0.609375q-0.109375 -0.375 -0.109375 -0.9375l0 -5.125002l-0.96875 0l0 -0.734375z" fill-rule="nonzero"></path><path fill="#000000" fill-opacity="0.0" d="m221.92126 208.29921l30.866135 -133.5433" fill-rule="evenodd"></path><path stroke="#000000" stroke-width="1.0" stroke-linejoin="round" stroke-linecap="butt" d="m221.92126 208.29921l29.514969 -127.69742" fill-rule="evenodd"></path><path fill="#000000" stroke="#000000" stroke-width="1.0" stroke-linecap="butt" d="m253.04553 80.97375l-0.5873413 -4.7934875l-2.6312714 4.049568z" fill-rule="evenodd"></path><path fill="#000000" fill-opacity="0.0" d="m221.92126 208.29921l98.677155 -85.448814" fill-rule="evenodd"></path><path stroke="#000000" stroke-width="1.0" stroke-linejoin="round" stroke-linecap="butt" d="m221.92126 208.29921l94.14139 -81.52111" fill-rule="evenodd"></path><path fill="#000000" stroke="#000000" stroke-width="1.0" stroke-linecap="butt" d="m317.14392 128.02675l2.3493652 -4.219368l-4.5118713 1.7220764z" fill-rule="evenodd"></path><path fill="#000000" fill-opacity="0.0" d="m221.92126 208.29921l134.36221 -36.97638" fill-rule="evenodd"></path><path stroke="#000000" stroke-width="1.0" stroke-linejoin="round" stroke-linecap="butt" d="m221.92126 208.29921l128.57727 -35.38437" fill-rule="evenodd"></path><path fill="#000000" stroke="#000000" stroke-width="1.0" stroke-linecap="butt" d="m350.9368 174.50737l3.9371643 -2.796646l-4.81369 -0.38841248z" fill-rule="evenodd"></path><path fill="#000000" fill-opacity="0.0" d="m221.92126 208.29921l0 0" fill-rule="evenodd"></path><path stroke="#000000" stroke-width="1.0" stroke-linejoin="round" stroke-linecap="butt" d="m221.92126 208.29921l0 0" fill-rule="evenodd"></path><path fill="#000000" stroke="#000000" stroke-width="1.0" stroke-linecap="butt" d="m221.92126 209.95094l4.538086 -1.6517334l-4.538086 -1.6517334z" fill-rule="evenodd"></path><path fill="#000000" fill-opacity="0.0" d="m221.92126 208.29921l202.17322 -93.70078" fill-rule="evenodd"></path><path stroke="#000000" stroke-width="1.0" stroke-linejoin="round" stroke-linecap="butt" d="m221.92126 208.29921l196.72949 -91.17778" fill-rule="evenodd"></path><path fill="#000000" stroke="#000000" stroke-width="1.0" stroke-linecap="butt" d="m419.34528 118.62003l3.4228516 -3.4068756l-4.8119507 0.40966797z" fill-rule="evenodd"></path><path fill="#000000" fill-opacity="0.0" d="m221.92126 208.29921l134.36221 33.259842" fill-rule="evenodd"></path><path stroke="#000000" stroke-width="1.0" stroke-linejoin="round" stroke-linecap="butt" d="m221.92126 208.29921l128.53796 31.818115" fill-rule="evenodd"></path><path fill="#000000" stroke="#000000" stroke-width="1.0" stroke-linecap="butt" d="m350.06238 241.72067l4.802002 -0.5128937l-4.0082397 -2.6937866z" fill-rule="evenodd"></path><path fill="#000000" fill-opacity="0.0" d="m221.92126 208.29921l213.22833 0" fill-rule="evenodd"></path><path stroke="#000000" stroke-width="1.0" stroke-linejoin="round" stroke-linecap="butt" d="m221.92126 208.29921l207.22833 0" fill-rule="evenodd"></path><path fill="#000000" stroke="#000000" stroke-width="1.0" stroke-linecap="butt" d="m429.1496 209.95094l4.5381165 -1.6517334l-4.5381165 -1.6517334z" fill-rule="evenodd"></path><path fill="#000000" fill-opacity="0.0" d="m221.92126 208.29921l202.17322 93.70079" fill-rule="evenodd"></path><path stroke="#000000" stroke-width="1.0" stroke-linejoin="round" stroke-linecap="butt" d="m221.92126 208.29921l196.72949 91.17778" fill-rule="evenodd"></path><path fill="#000000" stroke="#000000" stroke-width="1.0" stroke-linecap="butt" d="m417.95618 300.9756l4.8119507 0.40966797l-3.4228516 -3.4068604z" fill-rule="evenodd"></path><path fill="#000000" fill-opacity="0.0" d="m221.92126 208.29921l106.04724 81.70079" fill-rule="evenodd"></path><path stroke="#000000" stroke-width="1.0" stroke-linejoin="round" stroke-linecap="butt" d="m221.92126 208.29921l101.29422 78.03899" fill-rule="evenodd"></path><path fill="#000000" stroke="#000000" stroke-width="1.0" stroke-linecap="butt" d="m322.20743 287.64664l4.602997 1.4611511l-2.5868835 -4.078064z" fill-rule="evenodd"></path><path fill="#000000" fill-opacity="0.0" d="m221.92126 208.29921l54.86615 128.15749" fill-rule="evenodd"></path><path stroke="#000000" stroke-width="1.0" stroke-linejoin="round" stroke-linecap="butt" d="m221.92126 208.29921l52.50476 122.64171" fill-rule="evenodd"></path><path fill="#000000" stroke="#000000" stroke-width="1.0" stroke-linecap="butt" d="m272.9076 331.59097l3.3044434 3.5217896l-0.26757812 -4.8218994z" fill-rule="evenodd"></path><path fill="#000000" fill-opacity="0.0" d="m221.92126 208.29921l134.36221 173.73228" fill-rule="evenodd"></path><path stroke="#000000" stroke-width="1.0" stroke-linejoin="round" stroke-linecap="butt" d="m221.92126 208.29921l130.69156 168.9861" fill-rule="evenodd"></path><path fill="#000000" stroke="#000000" stroke-width="1.0" stroke-linecap="butt" d="m351.30624 378.29578l4.082855 2.5793152l-1.469696 -4.600281z" fill-rule="evenodd"></path><path fill="#000000" fill-opacity="0.0" d="m221.92126 208.29921l123.33859 -177.48032" fill-rule="evenodd"></path><path stroke="#000000" stroke-width="1.0" stroke-linejoin="round" stroke-linecap="butt" d="m221.92126 208.29921l119.91455 -172.55324" fill-rule="evenodd"></path><path fill="#000000" stroke="#000000" stroke-width="1.0" stroke-linecap="butt" d="m343.19217 36.688564l1.2333984 -4.6691856l-3.9461365 2.7839928z" fill-rule="evenodd"></path><path fill="#3c78d8" d="m491.91864 48.440945l0 0c0 -19.508263 25.93927 -35.322834 57.93701 -35.322834l0 0c31.997742 0 57.93701 15.814571 57.93701 35.322834l0 0c0 19.508266 -25.93927 35.322834 -57.93701 35.322834l0 0c-31.997742 0 -57.93701 -15.814568 -57.93701 -35.322834z" fill-rule="evenodd"></path><path stroke="#000000" stroke-width="1.0" stroke-linejoin="round" stroke-linecap="butt" d="m491.91864 48.440945l0 0c0 -19.508263 25.93927 -35.322834 57.93701 -35.322834l0 0c31.997742 0 57.93701 15.814571 57.93701 35.322834l0 0c0 19.508266 -25.93927 35.322834 -57.93701 35.322834l0 0c-31.997742 0 -57.93701 -15.814568 -57.93701 -35.322834z" fill-rule="evenodd"></path><path fill="#ffffff" d="m536.7461 52.180946l0 -3.65625q0 -0.234375 -0.015625 -0.453125q-0.015625 -0.21875 -0.078125 -0.375q-0.046875 -0.171875 -0.171875 -0.265625q-0.109375 -0.109375 -0.296875 -0.109375q-0.375 0 -0.640625 0.3125q-0.25 0.296875 -0.390625 0.765625l0 3.78125l-0.828125 0l0 -5.5l0.5625 0l0.171875 0.671875l0.046875 0q0.109375 -0.171875 0.203125 -0.3125q0.109375 -0.15625 0.25 -0.265625q0.140625 -0.109375 0.328125 -0.15625q0.1875 -0.0625 0.46875 -0.0625q0.171875 0 0.34375 0.046875q0.171875 0.046875 0.3125 0.15625q0.15625 0.09375 0.265625 0.28125q0.109375 0.171875 0.140625 0.421875q0.265625 -0.421875 0.578125 -0.65625q0.3125 -0.25 0.859375 -0.25q0.359375 0 0.578125 0.125q0.234375 0.109375 0.359375 0.34375q0.125 0.21875 0.171875 0.53125q0.0625 0.3125 0.0625 0.703125l0 3.921875l-0.84375 0l0 -3.734375q0 -0.234375 -0.03125 -0.4375q-0.015625 -0.203125 -0.078125 -0.359375q-0.0625 -0.15625 -0.171875 -0.234375q-0.09375 -0.09375 -0.265625 -0.09375q-0.390625 0 -0.65625 0.3125q-0.265625 0.296875 -0.390625 0.875l0 3.671875l-0.84375 0zm6.940674 -0.84375l0.421875 0l1.359375 -4.65625l0.890625 0l-1.53125 4.9375q-0.125 0.390625 -0.25 0.875q-0.125 0.484375 -0.359375 0.90625q-0.21875 0.4375 -0.625 0.734375q-0.390625 0.296875 -1.03125 0.296875q-0.140625 0 -0.296875 -0.03125q-0.15625 -0.03125 -0.3125 -0.078125q-0.15625 -0.046875 -0.296875 -0.125q-0.125 -0.0625 -0.1875 -0.125l0.296875 -0.796875q0.078125 0.0625 0.1875 0.109375q0.109375 0.0625 0.25 0.09375q0.140625 0.046875 0.265625 0.0625q0.140625 0.03125 0.234375 0.03125q0.8125 0 1.109375 -1.390625l-0.734375 0l-2.3125 -5.5l1.0 0l1.921875 4.65625zm7.70636 -1.296875l-2.953125 0l-0.703125 2.140625l-0.90625 0l2.578125 -7.703125l1.078125 0l2.59375 7.703125l-0.953125 0l-0.734375 -2.140625zm-2.671875 -0.78125l2.421875 0l-1.125 -3.625l-0.140625 0l-1.15625 3.625zm5.393799 -0.65625q0 -0.09375 -0.015625 -0.25q0 -0.171875 -0.015625 -0.328125q-0.015625 -0.171875 -0.03125 -0.328125q-0.015625 -0.171875 -0.03125 -0.296875l-0.734375 0l0 -0.71875l1.453125 0l0.109375 0.765625l0.0625 0q0.296875 -0.375 0.75 -0.625q0.453125 -0.265625 1.125 -0.265625q1.171875 0 1.765625 0.65625q0.59375 0.640625 0.59375 2.109375q0 0.6875 -0.203125 1.25q-0.203125 0.546875 -0.578125 0.9375q-0.375 0.390625 -0.90625 0.59375q-0.515625 0.203125 -1.15625 0.203125q-0.234375 0 -0.421875 -0.015625q-0.171875 -0.015625 -0.328125 -0.046875q-0.140625 -0.015625 -0.296875 -0.0625q-0.140625 -0.046875 -0.296875 -0.109375l0 2.3125l-0.84375 0l0 -5.78125zm2.53125 -1.25q-0.34375 0 -0.640625 0.125q-0.28125 0.109375 -0.515625 0.3125q-0.21875 0.203125 -0.359375 0.453125q-0.140625 0.234375 -0.171875 0.46875l0 2.515625q0.234375 0.15625 0.53125 0.25q0.3125 0.09375 0.8125 0.09375q0.875 0 1.40625 -0.578125q0.53125 -0.578125 0.53125 -1.6875q0 -0.9375 -0.375 -1.4375q-0.375 -0.515625 -1.21875 -0.515625zm3.8625488 1.25q0 -0.09375 -0.015625 -0.25q0 -0.171875 -0.015625 -0.328125q-0.015625 -0.171875 -0.03125 -0.328125q-0.015625 -0.171875 -0.03125 -0.296875l-0.734375 0l0 -0.71875l1.453125 0l0.109375 0.765625l0.0625 0q0.296875 -0.375 0.75 -0.625q0.453125 -0.265625 1.125 -0.265625q1.171875 0 1.765625 0.65625q0.59375 0.640625 0.59375 2.109375q0 0.6875 -0.203125 1.25q-0.203125 0.546875 -0.578125 0.9375q-0.375 0.390625 -0.90625 0.59375q-0.515625 0.203125 -1.15625 0.203125q-0.234375 0 -0.421875 -0.015625q-0.171875 -0.015625 -0.328125 -0.046875q-0.140625 -0.015625 -0.296875 -0.0625q-0.140625 -0.046875 -0.296875 -0.109375l0 2.3125l-0.84375 0l0 -5.78125zm2.53125 -1.25q-0.34375 0 -0.640625 0.125q-0.28125 0.109375 -0.515625 0.3125q-0.21875 0.203125 -0.359375 0.453125q-0.140625 0.234375 -0.171875 0.46875l0 2.515625q0.234375 0.15625 0.53125 0.25q0.3125 0.09375 0.8125 0.09375q0.875 0 1.40625 -0.578125q0.53125 -0.578125 0.53125 -1.6875q0 -0.9375 -0.375 -1.4375q-0.375 -0.515625 -1.21875 -0.515625z" fill-rule="nonzero"></path><path fill="#000000" fill-opacity="0.0" d="m221.92126 208.29921l269.98425 -159.87401" fill-rule="evenodd"></path><path stroke="#000000" stroke-width="1.0" stroke-linejoin="round" stroke-linecap="butt" d="m221.92126 208.29921l264.8215 -156.81685" fill-rule="evenodd"></path><path fill="#000000" stroke="#000000" stroke-width="1.0" stroke-linecap="butt" d="m487.58438 52.9036l3.0632324 -3.7335243l-4.7464294 0.8910446z" fill-rule="evenodd"></path></g></svg>

